<?xml version="1.0" encoding="UTF-8" standalone="no"?>
<svg
   xmlns:dc="http://purl.org/dc/elements/1.1/"
   xmlns:cc="http://creativecommons.org/ns#"
   xmlns:rdf="http://www.w3.org/1999/02/22-rdf-syntax-ns#"
   xmlns:svg="http://www.w3.org/2000/svg"
   xmlns="http://www.w3.org/2000/svg"
   xmlns:sodipodi="http://sodipodi.sourceforge.net/DTD/sodipodi-0.dtd"
   xmlns:inkscape="http://www.inkscape.org/namespaces/inkscape"
   width="2550.000000pt"
   height="450.000000pt"
   viewBox="0 0 2550.000000 450.000000"
   preserveAspectRatio="xMidYMid meet"
   id="svg2"
   version="1.1"
   inkscape:version="0.91 r13725"
   sodipodi:docname="banner.svg">
  <metadata
     id="metadata76">
    <rdf:RDF>
      <cc:Work
         rdf:about="">
        <dc:format>image/svg+xml</dc:format>
        <dc:type
           rdf:resource="http://purl.org/dc/dcmitype/StillImage" />
      </cc:Work>
    </rdf:RDF>
  </metadata>
  <defs
     id="defs74" />
  <sodipodi:namedview
     pagecolor="#ffffff"
     bordercolor="#666666"
     borderopacity="1"
     objecttolerance="10"
     gridtolerance="10"
     guidetolerance="10"
     inkscape:pageopacity="0"
     inkscape:pageshadow="2"
     inkscape:window-width="1849"
     inkscape:window-height="1040"
     id="namedview72"
     showgrid="false"
     inkscape:snap-nodes="false"
     inkscape:snap-others="false"
     inkscape:snap-global="false"
     inkscape:zoom="0.39"
     inkscape:cx="1579.9188"
     inkscape:cy="119.58127"
     inkscape:window-x="0"
     inkscape:window-y="0"
     inkscape:window-maximized="0"
     inkscape:current-layer="svg2" />
  <path
     d="M 0 225 L 0 450 L 1275 450 L 2550 450 L 2550 225 L 2550 0 L 1275 0 L 0 0 L 0 225 Z M 791 226.5 C 791 404.3 791 405 789 405 C 787 405 787 404.3 787 226.5 C 787 48.7 787 48 789 48 C 791 48 791 48.7 791 226.5 Z M 387.4 79 C 393.2 81.2 393.1 79.2 392.8 159 L 392.5 232 L 389.7 234.7 C 387 237.5 386.9 237.5 373 237.5 C 359.1 237.5 359 237.5 356.3 234.7 L 353.5 232 L 353.2 160.2 C 353 110.6 353.2 87.3 354 84.8 C 355.6 79.1 358.4 78.1 372.7 78 C 379.4 78 386 78.4 387.4 79 Z M 1038 93.6 C 1042.6 94.4 1049.9 96.3 1054.2 97.6 L 1062 100.1 L 1053.2 117.6 C 1045.7 132.7 1044.2 135.1 1042.5 134.7 C 1020.4 129.5 1001.8 129.7 984.5 135.5 C 970 140.3 952.3 152 943.4 162.6 C 933.9 174.1 926.6 187.9 922.8 201.7 C 919.7 212.9 919.7 237.1 922.8 248.3 C 931.6 280.4 954.7 304.8 986 314.9 C 996.1 318.2 1005.4 319.3 1019 318.7 C 1037.9 318 1054.2 312.4 1069.5 301.5 C 1075.4 297.3 1086.9 285.9 1090.3 281 L 1092 278.5 L 1109.1 287 C 1118.5 291.7 1126.4 295.9 1126.7 296.3 C 1127.5 297.5 1116.4 311.7 1108.6 319.6 C 1090.2 338 1066.9 350.4 1039.7 356.1 C 1026.4 358.9 1003.7 359.2 990.7 356.6 C 934.5 345.7 892.1 302.6 882.5 246.6 C 880.6 235.2 880.6 214.8 882.5 203.4 C 891.6 150.5 930 108.8 981.7 95.5 C 987.1 94.1 994.9 92.6 999 92 C 1008.8 90.8 1027.4 91.6 1038 93.6 Z M 481.5 95.4 C 483.3 96.2 485.3 97.7 485.9 98.8 C 487.4 101.7 487.4 230.3 485.9 233.2 C 484.1 236.6 478.9 238 467.5 238 C 456.1 238 450.9 236.6 449.1 233.2 C 447.6 230.3 447.6 101.7 449.1 98.9 C 451 95.3 455.7 94.1 467.3 94 C 474.4 94 479.2 94.5 481.5 95.4 Z M 1083.7 111.1 C 1102.656 122.676 1117.935 138.518 1128.806 156.781 C 1146.954 187.269 1152.818 224.504 1143 259.9 C 1140.8 267.8 1135.1 283 1134.4 283 C 1134.2 283 1126.3 279.2 1116.9 274.5 C 1102.8 267.4 1099.9 265.6 1100.5 264.2 C 1107.4 247.3 1109.5 236.1 1108.7 220.5 C 1107.1 189.9 1091.4 162.4 1066 145.9 L 1058.1 140.7 L 1066.6 123.9 C 1071.2 114.6 1075.5 107 1076 107 C 1076.5 107 1080 108.9 1083.7 111.1 Z M 530.9 116.6 L 534 119.2 L 534 175.5 L 534 231.9 L 531.6 234.7 L 529.2 237.5 L 515 237.5 L 500.8 237.5 L 497.9 234.2 L 495 231 L 495 176.2 C 495 134.3 495.3 120.9 496.3 119 C 498.4 114.8 501.5 114 515.2 114 C 527.4 114 528 114.1 530.9 116.6 Z M 341.9 134.6 L 345 137.2 L 345 184.9 L 345 232.7 L 342.4 235.1 C 339.9 237.4 339.3 237.5 325.8 237.5 L 311.8 237.5 L 308.9 234.2 L 306 231 L 306 185.4 C 306 136.3 306.1 135.1 311.3 133 C 312.5 132.5 319.2 132.1 326.2 132.1 C 338.4 132 339 132.1 341.9 134.6 Z M 1641 136 C 1655 138.2 1668.5 144.2 1677.1 151.9 L 1681.5 155.9 L 1670.5 166.9 L 1659.5 177.9 L 1653.7 174 C 1646.3 169 1639.9 167.1 1628 166.3 C 1615.3 165.5 1608.3 167.5 1602.4 173.3 C 1594.3 181.4 1593.9 194.2 1601.4 200.8 C 1605.9 204.8 1611.7 206.5 1629 209 C 1646.3 211.5 1656.7 214.2 1663.2 217.7 C 1669 220.8 1677.9 230 1680.9 235.8 C 1685.9 245.5 1687.5 264.6 1684.5 276.5 C 1679.7 294.8 1664.9 308.1 1642.5 314.2 C 1635.8 316 1631.8 316.3 1618.5 316.3 C 1600.5 316.3 1591.1 314.7 1579.3 309.8 C 1572.1 306.8 1560.2 299.1 1556.6 295.1 L 1554.6 292.9 L 1566 281.5 L 1577.4 270.1 L 1580.9 272.9 C 1592.1 281.5 1601.8 284.4 1619.5 284.5 C 1632.4 284.5 1632.6 284.5 1639.5 281 C 1649 276.3 1651.2 272.5 1650.8 262 C 1650.6 256 1650 253.8 1648.2 251.2 C 1644.4 245.9 1639.8 244.3 1619.1 241.1 C 1597.6 237.7 1588.2 234.8 1580.1 229.3 C 1564.3 218.4 1557.6 195.9 1563.7 174 C 1569.1 154.5 1584 141.5 1606.6 136.7 C 1614.7 134.9 1631.8 134.6 1641 136 Z M 1794.5 138.4 C 1804.5 141.1 1814.3 146.5 1820.7 152.7 C 1837.1 168.6 1841 182.7 1841 226 C 1841 269.7 1837.2 283.2 1820.2 299.2 C 1812.5 306.4 1805.3 310.2 1794.3 313.1 C 1787.4 314.8 1783.1 315 1748.8 315 L 1711 315 L 1711 225.4 L 1711 135.8 L 1749.8 136.2 C 1782 136.6 1789.5 137 1794.5 138.4 Z M 1954.5 138.3 C 1965.8 141.5 1974.2 146.4 1981.3 153.9 C 1991.9 165.2 1996.5 177.3 1996.3 193.5 C 1996.1 217.3 1982.8 236 1960 244.6 C 1952.7 247.3 1951.9 247.4 1928.3 247.8 L 1904 248.2 L 1903.9 280.8 C 1903.8 298.8 1903.8 313.8 1903.9 314.2 C 1903.9 314.7 1895.9 315 1886 315 L 1868 315 L 1868 226.2 C 1868 177.3 1868.3 137 1868.7 136.6 C 1869.2 136.2 1887.3 136 1909 136.2 C 1942.2 136.6 1949.5 136.9 1954.5 138.3 Z M 2081.7 148.6 C 2085.6 151.1 2087.3 154.8 2087.8 162.1 C 2088 165.9 2087.9 170.6 2087.6 172.5 C 2086.7 177.4 2082.6 181.8 2077.8 183 C 2074.3 184 2073.2 183.8 2069.2 181.8 C 2063.5 179 2062.1 175.8 2062.1 164.7 C 2062 154.4 2063.6 150.5 2069.2 148 C 2073.8 145.9 2077.8 146.1 2081.7 148.6 Z M 2330 148.9 C 2334.1 151.8 2336 156.7 2336 164.7 C 2336 175.8 2333.1 181.1 2325.8 183.1 C 2320.3 184.5 2313.5 181.5 2311.5 176.6 C 2309.5 171.9 2309.5 158.1 2311.5 153.4 C 2314.2 146.8 2323.7 144.5 2330 148.9 Z M 2361.8 148.7 C 2364 150 2368 155.6 2368 157.2 C 2368 157.7 2367 158 2365.8 158 C 2364.3 157.9 2362.8 156.7 2361.5 154.7 C 2358.8 150.5 2353 149.7 2349.4 153.1 C 2347.2 155.2 2347 156.1 2347 164.9 C 2347 173.2 2347.3 174.6 2349.2 176.7 C 2353.8 181.6 2363 177.9 2363 171.1 C 2363 168.3 2362.7 168.1 2358.8 167.8 C 2355.7 167.6 2354.4 167 2354.2 165.7 C 2353.9 164.2 2354.7 164 2361 164 L 2368.2 164 L 2367.8 170 C 2367.5 174.9 2366.9 176.5 2364.5 179 C 2362.9 180.7 2359.8 182.5 2357.7 183.1 C 2352.2 184.6 2345 181.1 2343.3 176 C 2341.6 171 2341.7 157.7 2343.5 153.4 C 2346.2 147 2355.4 144.6 2361.8 148.7 Z M 2117.6 150.4 C 2121.6 154.4 2122.1 158.7 2119 163.7 C 2116.9 167.2 2112.3 169 2105.3 169 L 2101 169 L 2101 176 C 2101 182.8 2100.9 183 2098.5 183 L 2096 183 L 2096 165 L 2096 147 L 2105.1 147 C 2114.1 147 2114.2 147 2117.6 150.4 Z M 2150 149 C 2150 150.9 2149.3 151 2141 151 L 2132 151 L 2132 157 L 2132 163 L 2140.1 163 C 2147.2 163 2148.1 163.2 2147.8 164.7 C 2147.5 166.2 2146.2 166.5 2139.7 166.8 L 2132 167.1 L 2132 173 L 2132 179 L 2141 179 C 2149.3 179 2150 179.1 2150 181 C 2150 182.9 2149.3 183 2138.5 183 L 2127 183 L 2127 165 L 2127 147 L 2138.5 147 C 2149.3 147 2150 147.1 2150 149 Z M 2170.8 160.7 L 2180 174.5 L 2180 160.7 L 2180 147 L 2182.5 147 L 2185 147 L 2185 165 L 2185 183 L 2182.5 183 C 2180.3 183 2178.6 180.9 2171 169.2 L 2162 155.5 L 2162 169.2 L 2162 183 L 2159.5 183 L 2157 183 L 2157 165 L 2157 147 L 2159.4 147 C 2161.3 147 2163.4 149.6 2170.8 160.7 Z M 2227.8 150.4 L 2231.5 153.8 L 2231.5 165 L 2231.5 176.2 L 2227.8 179.6 C 2224.1 182.9 2223.9 183 2215 183 L 2206 183 L 2206 165 L 2206 147 L 2215 147 C 2223.9 147 2224.1 147.1 2227.8 150.4 Z M 2245 165 L 2245 183 L 2242.5 183 L 2240 183 L 2240 165 L 2240 147 L 2242.5 147 L 2245 147 L 2245 165 Z M 2271 158.7 C 2273.3 165.2 2276.3 173.3 2277.6 176.8 L 2280 183.1 L 2277.3 182.8 C 2275.3 182.6 2274.4 181.7 2273.5 179 L 2272.3 175.5 L 2264.7 175.2 L 2257.1 174.9 L 2255.9 179 C 2254.9 182.2 2254.2 183 2252.3 183 C 2251.1 183 2250 182.7 2250 182.3 C 2250 181.6 2261.9 148.9 2262.6 147.8 C 2262.9 147.3 2263.9 147 2264.9 147 C 2266.3 147 2267.7 149.7 2271 158.7 Z M 2289 163 L 2289 178.9 L 2298.2 179.2 C 2306.1 179.5 2307.5 179.8 2307.8 181.2 C 2308.1 182.8 2307.1 183 2296.6 183 L 2285 183 L 2285 165 C 2285 147.7 2285.1 147 2287 147 C 2288.9 147 2289 147.7 2289 163 Z M 2380 160.4 C 2380 172.4 2380.2 174 2382.1 176.4 C 2384.7 179.7 2390.9 180.1 2394 177 C 2395.8 175.2 2396 173.7 2396 161 L 2396 147 L 2398.5 147 L 2401 147 L 2401 160.9 C 2401 173.6 2400.8 175 2398.7 178.1 C 2394.2 184.9 2384.5 185.3 2378.5 179 C 2375.5 175.9 2375.5 175.9 2375.2 161.4 L 2374.8 147 L 2377.4 147 L 2380 147 L 2380 160.4 Z M 2433 149 C 2433 150.9 2432.3 151 2424 151 L 2415 151 L 2415 157 L 2415 163 L 2422.5 163 C 2429.3 163 2430 163.2 2430 165 C 2430 166.8 2429.3 167 2422.5 167 L 2415 167 L 2415 173 L 2415 179 L 2424 179 C 2432.3 179 2433 179.1 2433 181 C 2433 182.9 2432.3 183 2421.5 183 L 2410 183 L 2410 165 L 2410 147 L 2421.5 147 C 2432.3 147 2433 147.1 2433 149 Z M 436.7 157.4 L 439.5 159.8 L 439.8 194.6 C 440 220.1 439.8 230.2 438.9 232.3 C 437.1 236.7 432.8 238 420.5 238 C 409.1 238 403.9 236.6 402.1 233.2 C 401.4 231.8 401 219.2 401 195.7 L 401 160.2 L 404.1 157.6 C 407.1 155.1 407.6 155 420.5 155 C 433.2 155 434 155.1 436.7 157.4 Z M 1253.2 185.9 C 1264.8 190.4 1273.5 201.2 1277.5 216 C 1279.7 224.6 1280.8 260.7 1279.1 273.3 C 1275.1 303.2 1260.9 316.6 1233.5 316.4 C 1221.8 316.3 1214.8 314.1 1208.2 308.4 L 1204 304.8 L 1204 332.3 C 1204 347.5 1203.7 360.5 1203.4 361.4 C 1202.9 362.8 1200.4 363 1186.4 363 L 1170 363 L 1170 273.5 L 1170 184 L 1186.3 184.2 L 1202.5 184.5 L 1203 189.9 L 1203.5 195.2 L 1205.5 193 C 1208.1 190.1 1215 186.1 1220.3 184.4 C 1226.9 182.2 1246 183.1 1253.2 185.9 Z M 1368.9 184.5 C 1378.1 186.7 1386.6 191.5 1393.5 198.5 C 1404.5 209.6 1409.6 223.9 1410.7 246.7 L 1411.3 260 L 1370 260 L 1328.8 260 L 1329.4 264.7 C 1330.4 271.8 1334.6 279.7 1339.1 282.9 C 1344.6 286.9 1350.4 288.3 1360.7 287.8 C 1370.5 287.4 1375.7 285.5 1382.6 279.6 L 1386.5 276.3 L 1396.7 286 L 1406.9 295.8 L 1402 300.4 C 1390.9 310.7 1378.7 315.6 1361.6 316.6 C 1338 317.9 1318.7 310.2 1308.2 295.1 C 1294 274.9 1292.1 236.8 1304.2 212 C 1306.3 207.7 1309.8 203.1 1314.6 198.2 C 1322.1 190.7 1327.8 187.3 1338 184.6 C 1345.2 182.7 1360.8 182.6 1368.9 184.5 Z M 1512.2 185.1 C 1526.2 189.8 1535.5 200.1 1539.6 215.3 C 1540.7 219.4 1541 230.5 1541 267.7 L 1541 315 L 1524.5 315 L 1508 315 L 1508 273.2 C 1508 248.4 1507.6 230 1507 227.9 C 1504.4 218.6 1496.9 213 1487.3 213 C 1478.1 213 1471.4 217 1467.9 224.5 C 1466.2 228.2 1466 231.8 1466 271.7 L 1466 315 L 1449 315 L 1432 315 L 1432 249.5 L 1432 184 L 1448.5 184 L 1465 184 L 1465 189.6 L 1465 195.2 L 1468.8 192.2 C 1470.8 190.6 1473.6 188.7 1475 188 C 1484.9 182.7 1501.4 181.4 1512.2 185.1 Z M 2082 208.9 C 2086.1 211.8 2088 216.7 2088 224.7 C 2088 235.8 2085.1 241.1 2077.8 243.1 C 2072.3 244.5 2065.5 241.5 2063.5 236.6 C 2061.5 231.9 2061.5 218.1 2063.5 213.4 C 2066.2 206.8 2075.7 204.5 2082 208.9 Z M 2224.3 208.6 C 2227.3 210.2 2227.6 211.2 2225.7 212.8 C 2224.9 213.5 2223.9 213.4 2222.6 212.4 C 2219.9 210.5 2212.6 210.6 2210.6 212.6 C 2208.4 214.7 2208.5 219.7 2210.8 220.9 C 2211.7 221.4 2215 222.3 2218.1 222.9 C 2225.2 224.4 2228.5 227.5 2228.5 233 C 2228.5 242.2 2216.4 246.7 2206.8 241.1 C 2205.2 240.3 2204 239 2204 238.3 C 2204 236.1 2206.7 235.7 2209.2 237.4 C 2212.1 239.4 2218.9 239.5 2221.8 237.4 C 2224.3 235.7 2224.8 230.9 2222.7 229.1 C 2221.9 228.5 2218.9 227.5 2216 227 C 2206.4 225.2 2202.8 220.9 2205 213.8 C 2207 206.8 2216 204.4 2224.3 208.6 Z M 2254.8 208.8 C 2258.8 211.4 2260 215.2 2260 225 C 2260 231 2259.5 235.1 2258.6 236.9 C 2254.6 244.6 2243.3 245.7 2237.6 239 C 2232.9 233.3 2232.9 216.7 2237.7 211 C 2241.8 206.1 2249.2 205.1 2254.8 208.8 Z M 2355.6 210.2 C 2356.9 211.5 2358.2 213.7 2358.5 215.2 C 2359.1 217.6 2358.9 218 2357.1 218 C 2355.9 218 2354.5 216.9 2353.6 215.1 C 2351.9 212 2350.2 211 2346.4 211 C 2342.4 211 2340.2 212.8 2339 216.8 C 2336.9 224.7 2338.4 236.1 2342 238 C 2346.4 240.3 2351.4 239 2353.6 234.9 C 2354.4 233.2 2355.9 232 2357 232 C 2359.6 232 2359.5 233.9 2356.7 238.1 C 2352.5 244.4 2342.7 245.1 2337.1 239.5 C 2334.6 237 2334.5 236.5 2334.5 225 C 2334.5 213.4 2334.6 213 2337.1 210.4 C 2341.9 205.7 2351 205.5 2355.6 210.2 Z M 2117.6 210.4 C 2121.4 214.2 2122 218.1 2119.5 223 C 2117.2 227.5 2114.6 228.4 2101.8 229 C 2101.3 229 2101 232.1 2101 236 C 2101 242.8 2100.9 243 2098.5 243 L 2096 243 L 2096 225 L 2096 207 L 2105.1 207 C 2114.1 207 2114.2 207 2117.6 210.4 Z M 2150 209 C 2150 210.9 2149.3 211 2141 211 L 2132 211 L 2132 217 L 2132 223 L 2140 223 C 2144.4 223 2148 223.2 2148 223.4 C 2148 226.3 2146.4 227 2139.4 227 L 2132 227 L 2132 233 L 2132 239 L 2141 239 C 2149.3 239 2150 239.1 2150 241 C 2150 242.9 2149.3 243 2138.5 243 L 2127 243 L 2127 225 L 2127 207 L 2138.5 207 C 2149.3 207 2150 207.1 2150 209 Z M 2170.8 220.7 L 2180 234.5 L 2180 220.7 L 2180 207 L 2182.5 207 L 2185 207 L 2185 225 L 2185 243 L 2182.5 243 C 2180.3 243 2178.6 240.9 2171 229.2 L 2162 215.5 L 2162 229.2 L 2162 243 L 2159.5 243 L 2157 243 L 2157 225 L 2157 207 L 2159.4 207 C 2161.3 207 2163.4 209.6 2170.8 220.7 Z M 2273 221 C 2273 233.7 2273.2 235.2 2275 237 C 2277.6 239.6 2283 239.6 2286.1 237.1 C 2288.4 235.3 2288.5 234.5 2288.8 221.1 L 2289.2 207 L 2291.6 207 L 2294 207 L 2294 218.7 C 2294 225.2 2293.5 232.1 2293 234.1 C 2290.3 243.6 2277.8 246.7 2270.9 239.4 C 2268.6 237 2268.5 236.1 2268.2 221.9 L 2267.9 207 L 2270.4 207 L 2273 207 L 2273 221 Z M 2324.1 209.8 C 2326.8 212.2 2327.2 213.3 2327.2 217.1 C 2327.1 220.9 2326.6 221.9 2323.6 224.6 L 2320.1 227.6 L 2324.1 234.9 C 2326.2 238.9 2328 242.3 2328 242.6 C 2328 242.8 2326.9 243 2325.6 243 C 2323.5 243 2322.4 241.7 2318.9 235 C 2314.8 227.1 2314.7 227 2310.9 227 L 2307 227 L 2307 235 C 2307 242.9 2307 243 2304.5 243 L 2302 243 L 2302 225 L 2302 207 L 2311.5 207 C 2320.5 207 2321.1 207.1 2324.1 209.8 Z M 2390 209 C 2390 210.9 2389.3 211 2381 211 L 2372 211 L 2372 217 L 2372 223 L 2379.5 223 C 2386.3 223 2387 223.2 2387 225 C 2387 226.8 2386.3 227 2379.5 227 L 2372 227 L 2372 233 L 2372 239 L 2381 239 C 2389.3 239 2390 239.1 2390 241 C 2390 242.9 2389.3 243 2378.5 243 L 2367 243 L 2367 225 L 2367 207 L 2378.5 207 C 2389.3 207 2390 207.1 2390 209 Z M 114.4 259.4 C 118.9 261.3 119.7 262.8 117.2 265.2 C 115.6 266.8 114.9 267 113.2 266.1 C 108.7 263.7 103 265.1 103 268.5 C 103 271.4 103.5 271.8 110.1 273 C 116.2 274.2 118.7 276.1 119.9 280.4 C 121.7 287.3 117.3 293.4 109.7 294.5 C 105 295.2 98.7 293.9 95.6 291.5 C 93.7 290 93.7 290 95.9 287.6 C 98 285.3 98.2 285.3 102.3 286.8 C 107.1 288.5 111.7 287.9 112.7 285.3 C 113.8 282.5 111.5 280.7 105.7 279.5 C 99 278.2 96.3 276 95.4 271.3 C 93.6 261.8 104.2 255.1 114.4 259.4 Z M 149 261.6 C 149 265 148.9 265 144.5 265 L 140.1 265 L 139.8 279.7 L 139.5 294.5 L 136 294.5 L 132.5 294.5 L 132.2 279.7 L 131.9 265 L 127.5 265 C 123.2 265 123 264.9 123 262.2 C 123 260.6 123.3 259 123.7 258.6 C 124.1 258.3 129.9 258 136.7 258.1 L 149 258.2 L 149 261.6 Z M 175.5 260.4 C 181.2 264.1 181.9 272.3 177 277.5 L 174.9 279.8 L 178.5 286.9 C 182.3 294.6 182.1 295.5 176.3 294.8 C 174 294.6 172.9 293.4 170 287.7 C 167.3 282.4 166.1 281 164.3 281 C 162.1 281 162 281.4 162 288.1 L 162 295.1 L 158.3 294.8 L 154.5 294.5 L 154.2 277.5 C 154.1 268.2 154.2 259.9 154.5 259.2 C 155.3 257 171.8 258 175.5 260.4 Z M 202.7 259.2 C 203.6 260.4 214.8 291 215.3 293.5 C 215.4 294 213.8 294.6 211.8 294.6 C 208.4 294.8 208 294.5 207 291.4 C 205.9 288 205.8 288 199.9 288 C 194.1 288 194 288.1 192.6 291.5 C 191.4 294.4 190.6 295 188.1 295 C 186.5 295 184.9 294.6 184.6 294.2 C 184.3 293.7 186.8 286 190.1 276.9 C 193.4 267.9 196.2 259.9 196.5 259.2 C 196.7 258.6 198 258 199.3 258 C 200.7 258 202.2 258.6 202.7 259.2 Z M 240 261.5 C 240 265 240 265 235.5 265 L 231.1 265 L 230.8 279.7 L 230.5 294.5 L 227 294.5 L 223.5 294.5 L 223.2 279.7 L 222.9 265 L 218.5 265 C 214.2 265 214 264.9 214 262.2 C 214 260.6 214.3 259 214.7 258.7 C 215 258.3 220.9 258 227.7 258 L 240 258 L 240 261.5 Z M 270 261.5 L 270 265 L 262 265 L 254 265 L 254 269 L 254 273 L 261 273 L 268 273 L 268 276.5 L 268 280 L 261 280 L 254 280 L 254 283.5 L 254 287 L 262 287 L 270 287 L 270 291 L 270 295.1 L 258.3 294.8 L 246.5 294.5 L 246.2 277.5 C 246.1 268.2 246.2 260 246.4 259.3 C 246.8 258.3 250 258 258.5 258 L 270 258 L 270 261.5 Z M 294.5 259.6 C 298 261.2 300.2 263.8 301.4 267.7 C 302.1 269.8 301.8 270 298.5 270 C 295.7 270 294.3 269.4 292.8 267.5 C 290.6 264.7 286.9 264.2 284.6 266.6 C 282.3 268.9 282.3 283.6 284.7 286.2 C 286.7 288.4 288.9 288.5 291.8 286.4 C 295 284.2 294.7 281.2 291.3 280.8 C 289 280.6 288.4 280 288.2 277.2 L 287.9 274 L 294.9 274 L 302 274 L 302 279.1 C 302 288.2 298.1 293.3 290.2 294.6 C 284.8 295.4 278.4 292.1 276.4 287.5 C 274.4 282.5 274.6 269.4 276.8 265 C 279.8 258.8 287.8 256.4 294.5 259.6 Z M 316 276.5 L 316 295 L 312.5 295 L 309 295 L 309 276.5 L 309 258 L 312.5 258 L 316 258 L 316 276.5 Z M 341.4 259.4 C 345.1 261 349 265.4 349 268.1 C 349 271.1 343.3 270.6 340.4 267.5 C 338 264.9 335.5 264.4 333 266 C 331.3 267.1 330 280.7 331.3 284.3 C 332.9 288.7 337 289.2 340.4 285.5 C 343.5 282.2 349 282 349 285.1 C 349 288.2 343 293.7 338.6 294.5 C 333.5 295.5 328.1 293.3 325.2 289 C 323 285.8 322.9 284.6 323.2 275.4 C 323.5 264.2 324.5 262 330.5 259.4 C 334.4 257.7 337.3 257.7 341.4 259.4 Z M 382.8 260.7 C 387 263.8 388 266.7 388 276.5 C 388 286.3 387 289.2 382.8 292.3 C 380.6 294 378.4 294.4 371.3 294.4 L 362.5 294.5 L 362.2 277.5 C 362.1 268.2 362.2 259.9 362.5 259.2 C 363.4 256.9 379.2 258 382.8 260.7 Z M 415.7 275.5 C 419.2 284.8 422 293.1 422 293.8 C 422 294.7 420.8 295 418.3 294.8 C 415 294.5 414.4 294.1 413.6 291.2 C 412.7 288 412.7 288 406.5 288 C 400.4 288 400.3 288 399.4 291.2 C 398.6 294 398 294.5 394.7 294.7 C 392.7 294.9 391 294.6 391 294.1 C 391 293 402.7 260.2 403.6 258.8 C 403.9 258.3 405.4 258 406.8 258.2 C 409.3 258.5 409.9 259.7 415.7 275.5 Z M 445.4 258.6 C 446.4 259 447 260.4 447 262.1 C 447 264.9 446.8 265 442.5 265 L 438.1 265 L 437.8 279.7 L 437.5 294.5 L 434 294.5 L 430.5 294.5 L 430.2 279.7 L 429.9 265 L 425.5 265 C 421.2 265 421 264.9 421 262.2 C 421 260.6 421.3 259 421.7 258.7 C 422.5 257.8 443.3 257.8 445.4 258.6 Z M 464.9 259.9 C 465.9 261.8 477 291.7 477.3 293.5 C 477.4 294 475.8 294.6 473.8 294.7 C 470.4 294.9 470 294.6 469 291.5 C 467.9 288 467.8 288 461.9 288 C 456.1 288 456 288.1 454.6 291.5 C 453.4 294.4 452.6 295 450.1 295 C 448.5 295 446.9 294.6 446.6 294.1 C 446.1 293.4 449.3 284.1 458.5 259.2 C 459.2 257.3 463.8 257.8 464.9 259.9 Z M 508.5 260.4 C 512.5 263.1 514.5 268.5 513 273.2 C 511.5 278.4 507.2 281 500.3 281 L 495 281 L 495 288 L 495 295 L 491.5 295 L 488 295 L 488 276.4 L 488 257.8 L 496.9 258.2 C 503.1 258.5 506.5 259.1 508.5 260.4 Z M 536.9 259.3 C 544.5 262 547 271.3 541.7 276.8 L 538.9 279.8 L 542.5 286.9 C 546.3 294.6 546.1 295.5 540.3 294.8 C 537.9 294.5 537 293.5 534.2 287.7 C 531.5 282.1 530.6 281 528.5 281 C 526.1 281 526 281.2 526 288 L 526 295 L 522.5 295 L 519 295 L 519 276.5 L 519 258 L 526.3 258.1 C 530.2 258.1 535 258.6 536.9 259.3 Z M 571.5 260.4 C 576.9 263.9 578.9 271 577.5 281.6 C 576.9 286.3 576.2 288 573.6 290.6 C 567.5 296.7 557.9 295.9 553.3 289.1 C 551.3 286.2 551 284.4 551 276.6 C 551 266.1 552.8 261.9 558.3 259.4 C 562.1 257.7 568.1 258.2 571.5 260.4 Z M 600.8 272 C 601 286.7 600.5 288.8 595.7 292.4 C 591.8 295.3 583.9 295.3 581 292.4 L 579 290.4 L 581.5 288 C 583.4 286.2 584.3 285.9 585.2 286.8 C 586.8 288.4 589.2 288.3 591.4 286.7 C 593 285.5 593.2 283.8 593.1 272.7 C 593 265.7 593.2 259.5 593.6 258.9 C 593.9 258.3 595.6 258 597.3 258.2 L 600.5 258.5 L 600.8 272 Z M 632.8 261.7 L 633.1 265 L 625.1 265 L 617 265 L 617 269 L 617 273 L 624 273 L 631 273 L 631 276.5 L 631 280 L 624 280 L 617 280 L 617 283.5 L 617 286.9 L 624.8 287.2 L 632.5 287.5 L 632.5 291 L 632.5 294.5 L 621 294.5 L 609.5 294.5 L 609.2 277.5 C 609.1 268.2 609.2 260 609.4 259.4 C 609.7 258.5 613.2 258.2 621.2 258.3 L 632.5 258.5 L 632.8 261.7 Z M 657.3 259.4 C 661.2 261 663.6 263.6 664.5 267.2 C 665.2 269.9 665.1 270 661.1 270 C 658.1 270 657 269.6 657 268.5 C 657 266.1 652.5 264.5 649.6 265.8 C 644.9 267.9 644.6 284.6 649.2 287.1 C 651.9 288.5 655.7 287.4 656.5 285 C 657 283.4 658 283 661.1 283 C 665.7 283 666 284.2 662.7 289.1 C 658.3 295.6 648.9 296.6 643 291.2 C 639.4 288 637.9 281.4 638.6 272.5 C 639.2 265.6 641.1 262.3 646.1 259.8 C 650.2 257.6 653 257.5 657.3 259.4 Z M 694 261.5 C 694 265 694 265 689.5 265 L 685.1 265 L 684.8 279.7 L 684.5 294.5 L 681 294.5 L 677.5 294.5 L 677.2 279.7 L 676.9 265 L 672.5 265 C 668.2 265 668 264.9 668 262.2 C 668 260.6 668.3 259 668.7 258.7 C 669 258.3 674.9 258 681.7 258 L 694 258 L 694 261.5 Z M 2081.7 268.6 C 2085.6 271.1 2087.3 274.8 2087.8 282.1 C 2088 285.9 2087.9 290.6 2087.6 292.5 C 2086.7 297.4 2082.6 301.8 2077.8 303 C 2074.3 304 2073.2 303.8 2069.2 301.8 C 2063.5 299 2062.1 295.8 2062.1 284.7 C 2062 274.4 2063.6 270.5 2069.2 268 C 2073.8 265.9 2077.8 266.1 2081.7 268.6 Z M 2319.2 267 C 2323.2 268.2 2328 273.1 2328 276.1 C 2328 279 2324.2 278.6 2323 275.6 C 2321.2 270.8 2314.1 269.4 2310.2 273 C 2308.2 274.9 2308 276.1 2308 285 C 2308 296.6 2309.3 299 2315.5 299 C 2319 299 2324 295.5 2324 293 C 2324 292.5 2324.9 292 2326 292 C 2331.2 292 2325.5 301.2 2319.2 302.9 C 2315.3 304 2311.7 303.5 2308.2 301.2 C 2304.2 298.6 2303 294.8 2303 285 C 2303 272 2305.4 268.2 2315 266.1 C 2315.3 266.1 2317.2 266.5 2319.2 267 Z M 2421.6 267.9 C 2427.2 270.5 2429 274.6 2429 285 C 2429 295.6 2427.2 299.6 2421.3 302.2 C 2417.8 303.7 2416.3 303.9 2413.2 303.1 C 2406 301.1 2403 295.8 2403 284.9 C 2403 274.6 2406 269 2412.6 267 C 2416.7 265.8 2417.1 265.8 2421.6 267.9 Z M 2117.6 270.4 C 2121.6 274.4 2122.1 278.7 2119 283.7 C 2116.9 287.2 2112.3 289 2105.3 289 L 2101 289 L 2101 296 C 2101 302.8 2100.9 303 2098.5 303 L 2096 303 L 2096 285 L 2096 267 L 2105.1 267 C 2114.1 267 2114.2 267 2117.6 270.4 Z M 2150 269 C 2150 270.9 2149.3 271 2141 271 L 2132 271 L 2132 277 L 2132 283 L 2140.1 283 C 2147.2 283 2148.1 283.2 2147.8 284.7 C 2147.5 286.2 2146.2 286.5 2139.7 286.8 L 2132 287.1 L 2132 293 L 2132 299 L 2141 299 C 2149.3 299 2150 299.1 2150 301 C 2150 302.9 2149.3 303 2138.5 303 L 2127 303 L 2127 285 L 2127 267 L 2138.5 267 C 2149.3 267 2150 267.1 2150 269 Z M 2170.8 280.7 L 2180 294.5 L 2180 280.7 L 2180 267 L 2182.5 267 L 2185 267 L 2185 285 L 2185 303 L 2182.5 303 C 2180.3 303 2178.6 300.9 2171 289.2 L 2162 275.5 L 2162 289.2 L 2162 303 L 2159.5 303 L 2157 303 L 2157 285 L 2157 267 L 2159.4 267 C 2161.3 267 2163.4 269.6 2170.8 280.7 Z M 2229 269 C 2229 270.9 2228.3 271 2220 271 L 2211 271 L 2211 277 L 2211 283 L 2219.1 283 C 2226.2 283 2227.1 283.2 2226.8 284.7 C 2226.5 286.2 2225.2 286.5 2218.7 286.8 L 2211 287.1 L 2211 293 L 2211 299 L 2220 299 C 2228.3 299 2229 299.1 2229 301 C 2229 302.9 2228.3 303 2217.5 303 L 2206 303 L 2206 285 L 2206 267 L 2217.5 267 C 2228.3 267 2229 267.1 2229 269 Z M 2257.8 270.4 L 2261.5 273.8 L 2261.5 285 L 2261.5 296.2 L 2257.8 299.6 C 2254.1 302.9 2253.9 303 2245 303 L 2236 303 L 2236 285 L 2236 267 L 2245 267 C 2253.9 267 2254.1 267.1 2257.8 270.4 Z M 2274.2 281.1 C 2274.5 294.5 2274.6 295.3 2276.9 297.1 C 2279.4 299.2 2284 299.6 2287 298 C 2289.9 296.4 2291 291.4 2291 278.9 C 2291 267.5 2291.1 267 2293.1 267 C 2295.1 267 2295.1 267.4 2294.8 281.9 C 2294.5 296.1 2294.4 297 2292.1 299.4 C 2287.2 304.6 2277.9 304.7 2273.1 299.6 C 2270 296.3 2269.1 291.4 2269 278.2 C 2269 267 2269 267 2271.4 267 L 2273.8 267 L 2274.2 281.1 Z M 2354.1 283.4 C 2362 304.8 2361.6 303 2358.6 303 C 2356.5 303 2355.9 302.3 2354.9 299 L 2353.7 295 L 2346 295 L 2338.3 295 L 2337.1 299 C 2336.1 302.3 2335.5 303 2333.4 303 C 2331.3 303 2330.9 302.6 2331.5 301.2 C 2331.9 300.3 2334.9 292.2 2338.2 283.2 C 2346.1 261.9 2346.1 261.9 2354.1 283.4 Z M 2385 269 C 2385 270.8 2384.3 271 2379.5 271 L 2374 271 L 2374 287 C 2374 302.3 2373.9 303 2372 303 C 2370.1 303 2370 302.3 2370 287.1 L 2370 271.1 L 2364.8 270.8 C 2360.7 270.6 2359.4 270.1 2359.2 268.7 C 2358.9 267.2 2360 267 2371.9 267 C 2384.3 267 2385 267.1 2385 269 Z M 2395 285 L 2395 303 L 2392.5 303 L 2390 303 L 2390 285 L 2390 267 L 2392.5 267 L 2395 267 L 2395 285 Z M 2450.5 280.7 L 2459.5 294.3 L 2459.8 280.7 C 2460 267.8 2460.2 267 2462 267 C 2463.9 267 2464 267.8 2464 285 C 2464 302.3 2463.9 303 2462 303 C 2460.6 303 2457.6 299.4 2451.3 289.9 L 2442.5 276.7 L 2442.2 289.9 L 2441.9 303 L 2439.5 303 L 2437 303 L 2437 285 L 2437 267 L 2439.3 267 C 2441 267 2443.4 269.9 2450.5 280.7 Z M 252.8 349.5 C 256.4 352.5 257.6 356 255.1 356 C 254.1 356 252.8 354.9 252.2 353.5 C 250.8 350.4 246.5 349.2 243.1 351.1 C 241.2 352.2 240.3 353.8 239.6 357.3 C 238.3 364.1 239.8 371.1 243.1 372.9 C 246.5 374.8 250.8 373.6 252.2 370.5 C 253.6 367.4 257.1 367 256.3 370 C 255.4 373.6 250.2 377 245.8 377 C 242.8 377 241.2 376.3 238.9 374.1 C 236.1 371.3 236 370.8 236 362 C 236 353.2 236.1 352.7 238.9 349.9 C 242.8 346.1 248.5 345.9 252.8 349.5 Z M 280.1 349.9 C 282.9 352.7 283 353.2 283 362 C 283 370.8 282.9 371.3 280.1 374.1 C 277.7 376.5 276.3 377 272.5 377 C 268.7 377 267.3 376.5 264.9 374.1 C 262.1 371.3 262 370.8 262 362 C 262 353.2 262.1 352.7 264.9 349.9 C 267.3 347.5 268.7 347 272.5 347 C 276.3 347 277.7 347.5 280.1 349.9 Z M 301.2 358.9 L 309 370.3 L 309 358.7 C 309 349 309.3 347 310.5 347 C 311.8 347 312 349.3 312 362.1 C 312 375.6 311.8 377.1 310.3 376.8 C 309.4 376.6 305.2 371.4 300.8 365.1 L 293 353.7 L 293 365.3 C 293 375 292.7 377 291.5 377 C 290.2 377 290 374.7 290 361.9 C 290 343.2 290.4 343.1 301.2 358.9 Z M 324.7 358.7 L 328.4 370.5 L 332 359 C 335 349.4 335.9 347.4 337.7 347.2 C 339.8 346.9 339.7 347.6 334.8 362 C 328.1 382.2 328.2 382.3 320.6 357.7 C 317.4 347.8 317.3 347 319.1 347 C 320.6 347 321.7 349.2 324.7 358.7 Z M 361.8 348.2 C 361.5 349.1 358.7 349.6 353.7 349.8 L 346 350.1 L 346 355.5 L 346 361 L 352.5 361 C 357.6 361 359 361.3 359 362.5 C 359 363.7 357.6 364 352.5 364 L 346 364 L 346 369 L 346 373.9 L 353.7 374.2 C 358.7 374.4 361.5 374.9 361.8 375.7 C 362.1 376.7 359.8 377 352.6 377 L 343 377 L 343 362 L 343 347 L 352.6 347 C 359.8 347 362.1 347.3 361.8 348.2 Z M 379.2 358.9 L 387 370.3 L 387 358.7 C 387 349 387.3 347 388.5 347 C 389.8 347 390 349.3 390 362.1 C 390 375.6 389.8 377.1 388.3 376.8 C 387.4 376.6 383.2 371.4 378.8 365.1 L 371 353.7 L 371 365.3 C 371 375 370.7 377 369.5 377 C 368.2 377 368 374.7 368 361.9 C 368 343.2 368.4 343.1 379.2 358.9 Z M 402 362 C 402 374.7 401.8 377 400.5 377 C 399.2 377 399 374.7 399 362 C 399 349.3 399.2 347 400.5 347 C 401.8 347 402 349.3 402 362 Z M 422.2 358.9 L 430 370.3 L 430 358.7 C 430 349 430.3 347 431.5 347 C 432.8 347 433 349.3 433 362.1 C 433 375.6 432.8 377.1 431.3 376.8 C 430.4 376.6 426.2 371.4 421.8 365.1 L 414 353.7 L 414 365.3 C 414 375 413.7 377 412.5 377 C 411.2 377 411 374.7 411 361.9 C 411 343.2 411.4 343.1 422.2 358.9 Z M 458.1 349.9 C 461 352.9 462 356 459.9 356 C 459.3 356 457.5 354.6 456 353 C 452.7 349.5 449.3 349.1 445.9 351.9 C 443.7 353.6 443.5 354.6 443.5 362 C 443.5 369.4 443.7 370.4 445.9 372.1 C 450.5 375.8 456.4 373.4 457.6 367.2 C 458.2 364 458.2 364 454.1 364 C 451.1 364 450 363.6 450 362.5 C 450 361.3 451.3 361 455.5 361 L 461 361 L 461 366.1 C 461 370.4 460.5 371.6 458.1 374.1 C 455.7 376.5 454.3 377 450.5 377 C 446.7 377 445.3 376.5 442.9 374.1 C 440.1 371.3 440 370.8 440 362 C 440 353.2 440.1 352.7 442.9 349.9 C 445.3 347.5 446.7 347 450.5 347 C 454.3 347 455.7 347.5 458.1 349.9 Z M 490.7 349.2 C 494.7 352.9 493.8 357.2 487.5 365.6 C 484.5 369.6 482 373.2 482 373.5 C 482 373.8 484.5 374 487.5 374 C 491.7 374 493 374.3 493 375.5 C 493 376.7 491.4 377 485 377 C 478.4 377 477 376.7 477 375.5 C 477 374.6 479.9 370.1 483.5 365.4 C 487.1 360.7 490 356.2 490 355.4 C 490 349.9 483 347.7 480.8 352.5 C 480.2 353.9 479.1 355 478.3 355 C 476.3 355 476.7 351.9 479.2 349.3 C 482 346.3 487.5 346.2 490.7 349.2 Z M 512.7 349.2 C 514.8 351.2 515 352.2 515 361.9 C 515 371.3 514.8 372.6 512.8 374.7 C 510 377.7 504.5 377.8 501.3 374.8 C 499.2 372.8 499 371.8 499 362.1 C 499 352.7 499.2 351.4 501.2 349.3 C 504 346.3 509.5 346.2 512.7 349.2 Z M 532 362 C 532 374.7 531.8 377 530.5 377 C 529.2 377 529 374.9 529 363.8 L 529 350.7 L 526.7 352.8 C 524.1 355.3 523 355.6 523 353.8 C 523 351.9 528.2 347 530.2 347 C 531.9 347 532 348.2 532 362 Z M 560 347.7 C 560 348.2 557.7 354.9 554.8 362.7 C 550.7 373.8 549.2 377 547.8 377 C 545.6 377 545.5 377.5 548.5 369.6 C 549.9 366 552.1 360.1 553.5 356.5 L 555.9 350 L 551 350 C 546.3 350 546 350.2 546 352.5 C 546 354.1 545.4 355 544.5 355 C 543.4 355 543 353.9 543 351 L 543 347 L 551.5 347 C 556.2 347 560 347.3 560 347.7 Z"
     style="fill: rgb(162, 31, 51);"
     id="path4" />
  <path
     d="M 360.9 84.2 C 359.1 84.9 359 86.8 359 157.3 C 359 218 359.2 229.9 360.4 230.9 C 361.3 231.7 365.9 232 374.1 231.8 L 386.5 231.5 L 386.5 158 L 386.5 84.5 L 374.7 84 C 368.2 83.7 362 83.8 360.9 84.2 Z"
     style="fill: rgb(162, 31, 51);"
     id="path6" />
  <path
     d="M 454.5 101.2 C 454.2 101.9 454.1 131.5 454.2 167 L 454.5 231.5 L 467 231.8 C 477.9 232 479.6 231.8 480.7 230.3 C 482.4 228.1 482.6 105 481 101.9 C 480 100.2 478.8 100 467.4 100 C 458.4 100 454.8 100.3 454.5 101.2 Z"
     style="fill: rgb(162, 31, 51);"
     id="path8" />
  <path
     d="M 513 120 L 501.5 120.5 L 501.5 176 L 501.5 231.5 L 513.9 231.8 C 522.1 232 526.7 231.7 527.6 230.9 C 528.8 229.9 529 220.7 529 176.1 C 529 146.6 528.6 122 528.2 121.4 C 527 119.7 525 119.5 513 120 Z"
     style="fill: rgb(162, 31, 51);"
     id="path10" />
  <path
     d="M 312.5 139.2 C 312.2 139.9 312.1 161 312.2 186 L 312.5 231.5 L 325.1 231.8 C 334.9 232 338 231.7 338.9 230.7 C 339.7 229.6 340 217.1 339.8 183.9 L 339.5 138.5 L 326.2 138.2 C 316.2 138 312.8 138.3 312.5 139.2 Z"
     style="fill: rgb(162, 31, 51);"
     id="path12" />
  <path
     d="M 1746.2 225.5 L 1746.5 283.2 L 1763.8 283 C 1784.8 282.9 1789.2 281.7 1796.3 274.1 C 1803.5 266.4 1804.2 263 1804.7 231.8 C 1805.4 191.9 1803.4 181.8 1793.2 174.6 C 1785.9 169.4 1782.9 168.7 1763.7 168.2 L 1746 167.8 L 1746.2 225.5 Z"
     style="fill: rgb(162, 31, 51);"
     id="path14" />
  <path
     d="M 1904 192 L 1904 216.1 L 1924.3 215.8 C 1943.7 215.5 1944.7 215.4 1948.9 213 C 1955 209.5 1958.8 204.5 1960.2 198 C 1962.6 186.4 1958.2 176.2 1948.8 171.3 C 1943.6 168.7 1943 168.6 1923.8 168.2 L 1904 167.8 L 1904 192 Z"
     style="fill: rgb(162, 31, 51);"
     id="path16" />
  <path
     d="M 2069.2 153.3 C 2067.3 155.4 2067 156.8 2067 165.1 C 2067 173.8 2067.2 174.8 2069.3 176.8 C 2072.7 180 2078.2 179.8 2080.9 176.4 C 2082.7 174.1 2083 172.3 2083 164.8 C 2083 156.7 2082.8 155.7 2080.5 153.5 C 2077.3 150.2 2072.2 150.1 2069.2 153.3 Z"
     style="fill: rgb(162, 31, 51);"
     id="path18" />
  <path
     d="M 2317.2 153.3 C 2315.3 155.4 2315 156.8 2315 165.1 C 2315 173.8 2315.2 174.8 2317.3 176.8 C 2320.5 179.8 2325.4 179.7 2328.5 176.5 C 2330.8 174.3 2331 173.3 2331 165 C 2331 156.7 2330.8 155.7 2328.5 153.5 C 2325.3 150.2 2320.2 150.1 2317.2 153.3 Z"
     style="fill: rgb(162, 31, 51);"
     id="path20" />
  <path
     d="M 2101 157.3 C 2101 160.8 2101.2 163.9 2101.5 164.1 C 2101.7 164.4 2104.7 164.3 2108 164 C 2114.7 163.4 2116 162.3 2116 157.3 C 2116 153 2113 151 2106.3 151 L 2101 151 L 2101 157.3 Z"
     style="fill: rgb(162, 31, 51);"
     id="path22" />
  <path
     d="M 2211 165 L 2211 179 L 2216.5 179 C 2221.1 179 2222.5 178.6 2224.5 176.5 C 2226.8 174.3 2227 173.3 2227 165 C 2227 156.7 2226.8 155.7 2224.5 153.5 C 2222.5 151.4 2221.1 151 2216.5 151 L 2211 151 L 2211 165 Z"
     style="fill: rgb(162, 31, 51);"
     id="path24" />
  <path
     d="M 2262 161.7 C 2260.7 165.4 2259.5 169.1 2259.2 169.7 C 2258.9 170.7 2260.4 171 2264.9 171 L 2271 171 L 2268.3 163.7 C 2266.9 159.8 2265.4 156.1 2265 155.7 C 2264.6 155.2 2263.2 157.9 2262 161.7 Z"
     style="fill: rgb(162, 31, 51);"
     id="path26" />
  <path
     d="M 406.6 162.6 C 406.3 163.4 406 178.9 406 197 C 406 223.7 406.3 230 407.4 230.9 C 408.3 231.7 412.9 232 421.1 231.8 L 433.5 231.5 L 433.5 196.5 L 433.5 161.5 L 420.4 161.2 C 409.1 161 407.2 161.2 406.6 162.6 Z"
     style="fill: rgb(162, 31, 51);"
     id="path28" />
  <path
     d="M 1215 215.2 C 1211.4 217.1 1209.9 218.7 1207.5 223.5 C 1204.6 229.3 1204.5 229.9 1204.2 246.5 C 1203.9 260 1204.1 264.9 1205.4 270 C 1208.4 281.6 1213.9 286.3 1225 286.4 C 1234 286.4 1239.1 283.5 1242.6 276.4 C 1247.9 265.6 1248.2 235.1 1243.2 223.8 C 1242.1 221.3 1239.6 218 1237.5 216.4 C 1234.3 214 1232.6 213.5 1226.6 213.2 C 1220.7 212.9 1218.7 213.3 1215 215.2 Z"
     style="fill: rgb(162, 31, 51);"
     id="path30" />
  <path
     d="M 1349.1 211.1 C 1339 212.4 1331.3 220.9 1329.5 232.7 L 1328.8 237 L 1353.3 237 L 1377.8 237 L 1377.3 232.7 C 1377.1 230.4 1375.6 226 1374.2 223 C 1369.6 213.7 1361 209.6 1349.1 211.1 Z"
     style="fill: rgb(162, 31, 51);"
     id="path32" />
  <path
     d="M 2069.1 213.4 C 2067.2 215.4 2066.9 216.8 2066.9 225 C 2066.9 233.2 2067.1 234.5 2069.1 236.6 C 2072.2 239.9 2077.3 239.8 2080.5 236.5 C 2082.8 234.3 2083 233.3 2083 225 C 2083 216.7 2082.8 215.7 2080.5 213.5 C 2077.3 210.2 2072.2 210.1 2069.1 213.4 Z"
     style="fill: rgb(162, 31, 51);"
     id="path34" />
  <path
     d="M 2241.9 212.9 C 2239.7 214.7 2239.5 215.5 2239.5 225 C 2239.5 234.5 2239.7 235.3 2241.9 237.1 C 2245 239.6 2250.4 239.6 2253 237 C 2254.7 235.3 2255 233.7 2255 225 C 2255 216.3 2254.7 214.7 2253 213 C 2250.4 210.4 2245 210.4 2241.9 212.9 Z"
     style="fill: rgb(162, 31, 51);"
     id="path36" />
  <path
     d="M 2101 217.5 L 2101 224 L 2106.9 224 C 2113.9 224 2116 222.5 2116 217.5 C 2116 212.9 2113.1 211 2106.3 211 L 2101 211 L 2101 217.5 Z"
     style="fill: rgb(162, 31, 51);"
     id="path38" />
  <path
     d="M 2307 217 L 2307 223 L 2313.4 223 C 2319 223 2320.1 222.7 2321.4 220.8 C 2325.4 215.2 2321.7 211 2313 211 L 2307 211 L 2307 217 Z"
     style="fill: rgb(162, 31, 51);"
     id="path40" />
  <path
     d="M 162 269.4 L 162 274 L 165.9 274 C 175 274 175.6 266.3 166.6 265.3 L 162 264.7 L 162 269.4 Z"
     style="fill: rgb(162, 31, 51);"
     id="path42" />
  <path
     d="M 197.8 277 L 196.2 282 L 200 282 L 203.8 282 L 202.2 277 C 201.3 274.2 200.3 272 200 272 C 199.7 272 198.7 274.2 197.8 277 Z"
     style="fill: rgb(162, 31, 51);"
     id="path44" />
  <path
     d="M 370 275.9 L 370 287 L 373.9 287 C 379.2 287 380.2 285.4 380.3 276.5 C 380.3 267.8 379.4 266.3 373.7 265.3 L 370 264.7 L 370 275.9 Z"
     style="fill: rgb(162, 31, 51);"
     id="path46" />
  <path
     d="M 405.1 274.9 C 404.4 277.3 403.6 279.8 403.3 280.6 C 402.9 281.6 403.7 282 406.5 282 C 410 282 410.2 281.9 409.6 279.4 C 409.2 277.9 408.3 275.4 407.7 273.7 L 406.4 270.7 L 405.1 274.9 Z"
     style="fill: rgb(162, 31, 51);"
     id="path48" />
  <path
     d="M 460.1 275.7 C 459.3 277.8 458.5 280.1 458.3 280.7 C 457.9 281.6 459 282 461.8 282 L 465.8 282 L 464.2 277 C 463.3 274.2 462.3 272 462 272 C 461.7 272 460.8 273.7 460.1 275.7 Z"
     style="fill: rgb(162, 31, 51);"
     id="path50" />
  <path
     d="M 495 269.5 L 495 274 L 499.4 274 C 504.4 274 506.5 272.2 505.6 268.6 C 505 266.2 502.6 265 497.8 265 C 495.2 265 495 265.3 495 269.5 Z"
     style="fill: rgb(162, 31, 51);"
     id="path52" />
  <path
     d="M 526 269.5 L 526 274 L 529.8 274 C 534.9 274 537.5 272.1 536.7 268.8 C 536 266.2 533.7 265 528.8 265 C 526.2 265 526 265.3 526 269.5 Z"
     style="fill: rgb(162, 31, 51);"
     id="path54" />
  <path
     d="M 560.6 266.6 C 559.4 267.7 559 270.2 559 276.5 C 559 282.8 559.4 285.3 560.6 286.4 C 562.5 288.4 565 288.4 567.6 286.6 C 569.2 285.4 569.5 283.9 569.5 276.5 C 569.5 269.1 569.2 267.6 567.6 266.4 C 565 264.6 562.5 264.6 560.6 266.6 Z"
     style="fill: rgb(162, 31, 51);"
     id="path56" />
  <path
     d="M 2069.2 273.3 C 2067.3 275.4 2067 276.8 2067 285.1 C 2067 293.8 2067.2 294.8 2069.3 296.8 C 2072.5 299.8 2077.4 299.7 2080.5 296.5 C 2082.8 294.3 2083 293.3 2083 285 C 2083 276.7 2082.8 275.7 2080.5 273.5 C 2077.3 270.2 2072.2 270.1 2069.2 273.3 Z"
     style="fill: rgb(162, 31, 51);"
     id="path58" />
  <path
     d="M 2410.5 273.5 C 2408.2 275.7 2408 276.7 2408 285 C 2408 293.3 2408.2 294.3 2410.5 296.5 C 2413.7 299.8 2418.8 299.9 2421.8 296.7 C 2423.7 294.6 2424 293.2 2424 284.9 C 2424 276.2 2423.8 275.2 2421.7 273.2 C 2418.5 270.2 2413.6 270.3 2410.5 273.5 Z"
     style="fill: rgb(162, 31, 51);"
     id="path60" />
  <path
     d="M 2101 277.5 L 2101 284 L 2106.9 284 C 2113.9 284 2116 282.5 2116 277.5 C 2116 272.9 2113.1 271 2106.3 271 L 2101 271 L 2101 277.5 Z"
     style="fill: rgb(162, 31, 51);"
     id="path62" />
  <path
     d="M 2241 285 L 2241 299 L 2246.5 299 C 2251.1 299 2252.5 298.6 2254.5 296.5 C 2256.8 294.3 2257 293.3 2257 285 C 2257 276.7 2256.8 275.7 2254.5 273.5 C 2252.5 271.4 2251.1 271 2246.5 271 L 2241 271 L 2241 285 Z"
     style="fill: rgb(162, 31, 51);"
     id="path64" />
  <path
     d="M 2345 277.5 C 2344.3 279.1 2343 282.9 2341.9 285.7 L 2340.1 291 L 2346.1 291 C 2353 291 2352.8 291.9 2348.4 280.5 L 2346.2 274.5 L 2345 277.5 Z"
     style="fill: rgb(162, 31, 51);"
     id="path66" />
  <path
     d="M 267.9 351.9 C 265.7 353.6 265.5 354.6 265.5 362 C 265.5 369.4 265.7 370.4 267.9 372.1 C 269.2 373.1 271.2 374 272.5 374 C 273.8 374 275.8 373.1 277.1 372.1 C 279.3 370.4 279.5 369.4 279.5 362 C 279.5 354.6 279.3 353.6 277.1 351.9 C 275.8 350.9 273.8 350 272.5 350 C 271.2 350 269.2 350.9 267.9 351.9 Z"
     style="fill: rgb(162, 31, 51);"
     id="path68" />
  <path
     d="M 503 351.9 C 502.5 353 502 357.5 502 362 C 502 371.7 503 374 507 374 C 511 374 512 371.7 512 362 C 512 352.3 511 350 507 350 C 505.1 350 503.7 350.7 503 351.9 Z"
     style="fill: rgb(162, 31, 51);"
     id="path70" />
  <path
     id="path4250"
     style="fill: rgb(162, 31, 51);"
     d="M 0 225 L 0 450 L 1275 450 L 2550 450 L 2550 225 L 2550 0 L 1275 0 L 0 0 L 0 225 Z M 791 226.5 C 791 404.3 791 405 789 405 C 787 405 787 404.3 787 226.5 C 787 48.7 787 48 789 48 C 791 48 791 48.7 791 226.5 Z M 387.4 79 C 393.2 81.2 393.1 79.2 392.8 159 L 392.5 232 L 389.7 234.7 C 387 237.5 386.9 237.5 373 237.5 C 359.1 237.5 359 237.5 356.3 234.7 L 353.5 232 L 353.2 160.2 C 353 110.6 353.2 87.3 354 84.8 C 355.6 79.1 358.4 78.1 372.7 78 C 379.4 78 386 78.4 387.4 79 Z M 1038 93.6 C 1042.6 94.4 1049.9 96.3 1054.2 97.6 L 1062 100.1 L 1053.2 117.6 C 1045.7 132.7 1044.2 135.1 1042.5 134.7 C 1020.4 129.5 1001.8 129.7 984.5 135.5 C 970 140.3 952.3 152 943.4 162.6 C 933.9 174.1 926.6 187.9 922.8 201.7 C 919.7 212.9 919.7 237.1 922.8 248.3 C 931.6 280.4 954.7 304.8 986 314.9 C 996.1 318.2 1005.4 319.3 1019 318.7 C 1037.9 318 1054.2 312.4 1069.5 301.5 C 1075.4 297.3 1086.9 285.9 1090.3 281 L 1092 278.5 L 1109.1 287 C 1118.5 291.7 1126.4 295.9 1126.7 296.3 C 1127.5 297.5 1116.4 311.7 1108.6 319.6 C 1090.2 338 1066.9 350.4 1039.7 356.1 C 1026.4 358.9 1003.7 359.2 990.7 356.6 C 934.5 345.7 892.1 302.6 882.5 246.6 C 880.6 235.2 880.6 214.8 882.5 203.4 C 891.6 150.5 930 108.8 981.7 95.5 C 987.1 94.1 994.9 92.6 999 92 C 1008.8 90.8 1027.4 91.6 1038 93.6 Z M 481.5 95.4 C 483.3 96.2 485.3 97.7 485.9 98.8 C 487.4 101.7 487.4 230.3 485.9 233.2 C 484.1 236.6 478.9 238 467.5 238 C 456.1 238 450.9 236.6 449.1 233.2 C 447.6 230.3 447.6 101.7 449.1 98.9 C 451 95.3 455.7 94.1 467.3 94 C 474.4 94 479.2 94.5 481.5 95.4 Z M 1083.7 111.1 C 1102.656 122.676 1117.935 138.518 1128.806 156.781 C 1146.954 187.269 1152.818 224.504 1143 259.9 C 1140.8 267.8 1135.1 283 1134.4 283 C 1134.2 283 1126.3 279.2 1116.9 274.5 C 1102.8 267.4 1099.9 265.6 1100.5 264.2 C 1107.4 247.3 1109.5 236.1 1108.7 220.5 C 1107.1 189.9 1091.4 162.4 1066 145.9 L 1058.1 140.7 L 1066.6 123.9 C 1071.2 114.6 1075.5 107 1076 107 C 1076.5 107 1080 108.9 1083.7 111.1 Z M 530.9 116.6 L 534 119.2 L 534 175.5 L 534 231.9 L 531.6 234.7 L 529.2 237.5 L 515 237.5 L 500.8 237.5 L 497.9 234.2 L 495 231 L 495 176.2 C 495 134.3 495.3 120.9 496.3 119 C 498.4 114.8 501.5 114 515.2 114 C 527.4 114 528 114.1 530.9 116.6 Z M 341.9 134.6 L 345 137.2 L 345 184.9 L 345 232.7 L 342.4 235.1 C 339.9 237.4 339.3 237.5 325.8 237.5 L 311.8 237.5 L 308.9 234.2 L 306 231 L 306 185.4 C 306 136.3 306.1 135.1 311.3 133 C 312.5 132.5 319.2 132.1 326.2 132.1 C 338.4 132 339 132.1 341.9 134.6 Z M 1641 136 C 1655 138.2 1668.5 144.2 1677.1 151.9 L 1681.5 155.9 L 1670.5 166.9 L 1659.5 177.9 L 1653.7 174 C 1646.3 169 1639.9 167.1 1628 166.3 C 1615.3 165.5 1608.3 167.5 1602.4 173.3 C 1594.3 181.4 1593.9 194.2 1601.4 200.8 C 1605.9 204.8 1611.7 206.5 1629 209 C 1646.3 211.5 1656.7 214.2 1663.2 217.7 C 1669 220.8 1677.9 230 1680.9 235.8 C 1685.9 245.5 1687.5 264.6 1684.5 276.5 C 1679.7 294.8 1664.9 308.1 1642.5 314.2 C 1635.8 316 1631.8 316.3 1618.5 316.3 C 1600.5 316.3 1591.1 314.7 1579.3 309.8 C 1572.1 306.8 1560.2 299.1 1556.6 295.1 L 1554.6 292.9 L 1566 281.5 L 1577.4 270.1 L 1580.9 272.9 C 1592.1 281.5 1601.8 284.4 1619.5 284.5 C 1632.4 284.5 1632.6 284.5 1639.5 281 C 1649 276.3 1651.2 272.5 1650.8 262 C 1650.6 256 1650 253.8 1648.2 251.2 C 1644.4 245.9 1639.8 244.3 1619.1 241.1 C 1597.6 237.7 1588.2 234.8 1580.1 229.3 C 1564.3 218.4 1557.6 195.9 1563.7 174 C 1569.1 154.5 1584 141.5 1606.6 136.7 C 1614.7 134.9 1631.8 134.6 1641 136 Z M 1794.5 138.4 C 1804.5 141.1 1814.3 146.5 1820.7 152.7 C 1837.1 168.6 1841 182.7 1841 226 C 1841 269.7 1837.2 283.2 1820.2 299.2 C 1812.5 306.4 1805.3 310.2 1794.3 313.1 C 1787.4 314.8 1783.1 315 1748.8 315 L 1711 315 L 1711 225.4 L 1711 135.8 L 1749.8 136.2 C 1782 136.6 1789.5 137 1794.5 138.4 Z M 1954.5 138.3 C 1965.8 141.5 1974.2 146.4 1981.3 153.9 C 1991.9 165.2 1996.5 177.3 1996.3 193.5 C 1996.1 217.3 1982.8 236 1960 244.6 C 1952.7 247.3 1951.9 247.4 1928.3 247.8 L 1904 248.2 L 1903.9 280.8 C 1903.8 298.8 1903.8 313.8 1903.9 314.2 C 1903.9 314.7 1895.9 315 1886 315 L 1868 315 L 1868 226.2 C 1868 177.3 1868.3 137 1868.7 136.6 C 1869.2 136.2 1887.3 136 1909 136.2 C 1942.2 136.6 1949.5 136.9 1954.5 138.3 Z M 2081.7 148.6 C 2085.6 151.1 2087.3 154.8 2087.8 162.1 C 2088 165.9 2087.9 170.6 2087.6 172.5 C 2086.7 177.4 2082.6 181.8 2077.8 183 C 2074.3 184 2073.2 183.8 2069.2 181.8 C 2063.5 179 2062.1 175.8 2062.1 164.7 C 2062 154.4 2063.6 150.5 2069.2 148 C 2073.8 145.9 2077.8 146.1 2081.7 148.6 Z M 2330 148.9 C 2334.1 151.8 2336 156.7 2336 164.7 C 2336 175.8 2333.1 181.1 2325.8 183.1 C 2320.3 184.5 2313.5 181.5 2311.5 176.6 C 2309.5 171.9 2309.5 158.1 2311.5 153.4 C 2314.2 146.8 2323.7 144.5 2330 148.9 Z M 2361.8 148.7 C 2364 150 2368 155.6 2368 157.2 C 2368 157.7 2367 158 2365.8 158 C 2364.3 157.9 2362.8 156.7 2361.5 154.7 C 2358.8 150.5 2353 149.7 2349.4 153.1 C 2347.2 155.2 2347 156.1 2347 164.9 C 2347 173.2 2347.3 174.6 2349.2 176.7 C 2353.8 181.6 2363 177.9 2363 171.1 C 2363 168.3 2362.7 168.1 2358.8 167.8 C 2355.7 167.6 2354.4 167 2354.2 165.7 C 2353.9 164.2 2354.7 164 2361 164 L 2368.2 164 L 2367.8 170 C 2367.5 174.9 2366.9 176.5 2364.5 179 C 2362.9 180.7 2359.8 182.5 2357.7 183.1 C 2352.2 184.6 2345 181.1 2343.3 176 C 2341.6 171 2341.7 157.7 2343.5 153.4 C 2346.2 147 2355.4 144.6 2361.8 148.7 Z M 2117.6 150.4 C 2121.6 154.4 2122.1 158.7 2119 163.7 C 2116.9 167.2 2112.3 169 2105.3 169 L 2101 169 L 2101 176 C 2101 182.8 2100.9 183 2098.5 183 L 2096 183 L 2096 165 L 2096 147 L 2105.1 147 C 2114.1 147 2114.2 147 2117.6 150.4 Z M 2150 149 C 2150 150.9 2149.3 151 2141 151 L 2132 151 L 2132 157 L 2132 163 L 2140.1 163 C 2147.2 163 2148.1 163.2 2147.8 164.7 C 2147.5 166.2 2146.2 166.5 2139.7 166.8 L 2132 167.1 L 2132 173 L 2132 179 L 2141 179 C 2149.3 179 2150 179.1 2150 181 C 2150 182.9 2149.3 183 2138.5 183 L 2127 183 L 2127 165 L 2127 147 L 2138.5 147 C 2149.3 147 2150 147.1 2150 149 Z M 2170.8 160.7 L 2180 174.5 L 2180 160.7 L 2180 147 L 2182.5 147 L 2185 147 L 2185 165 L 2185 183 L 2182.5 183 C 2180.3 183 2178.6 180.9 2171 169.2 L 2162 155.5 L 2162 169.2 L 2162 183 L 2159.5 183 L 2157 183 L 2157 165 L 2157 147 L 2159.4 147 C 2161.3 147 2163.4 149.6 2170.8 160.7 Z M 2227.8 150.4 L 2231.5 153.8 L 2231.5 165 L 2231.5 176.2 L 2227.8 179.6 C 2224.1 182.9 2223.9 183 2215 183 L 2206 183 L 2206 165 L 2206 147 L 2215 147 C 2223.9 147 2224.1 147.1 2227.8 150.4 Z M 2245 165 L 2245 183 L 2242.5 183 L 2240 183 L 2240 165 L 2240 147 L 2242.5 147 L 2245 147 L 2245 165 Z M 2271 158.7 C 2273.3 165.2 2276.3 173.3 2277.6 176.8 L 2280 183.1 L 2277.3 182.8 C 2275.3 182.6 2274.4 181.7 2273.5 179 L 2272.3 175.5 L 2264.7 175.2 L 2257.1 174.9 L 2255.9 179 C 2254.9 182.2 2254.2 183 2252.3 183 C 2251.1 183 2250 182.7 2250 182.3 C 2250 181.6 2261.9 148.9 2262.6 147.8 C 2262.9 147.3 2263.9 147 2264.9 147 C 2266.3 147 2267.7 149.7 2271 158.7 Z M 2289 163 L 2289 178.9 L 2298.2 179.2 C 2306.1 179.5 2307.5 179.8 2307.8 181.2 C 2308.1 182.8 2307.1 183 2296.6 183 L 2285 183 L 2285 165 C 2285 147.7 2285.1 147 2287 147 C 2288.9 147 2289 147.7 2289 163 Z M 2380 160.4 C 2380 172.4 2380.2 174 2382.1 176.4 C 2384.7 179.7 2390.9 180.1 2394 177 C 2395.8 175.2 2396 173.7 2396 161 L 2396 147 L 2398.5 147 L 2401 147 L 2401 160.9 C 2401 173.6 2400.8 175 2398.7 178.1 C 2394.2 184.9 2384.5 185.3 2378.5 179 C 2375.5 175.9 2375.5 175.9 2375.2 161.4 L 2374.8 147 L 2377.4 147 L 2380 147 L 2380 160.4 Z M 2433 149 C 2433 150.9 2432.3 151 2424 151 L 2415 151 L 2415 157 L 2415 163 L 2422.5 163 C 2429.3 163 2430 163.2 2430 165 C 2430 166.8 2429.3 167 2422.5 167 L 2415 167 L 2415 173 L 2415 179 L 2424 179 C 2432.3 179 2433 179.1 2433 181 C 2433 182.9 2432.3 183 2421.5 183 L 2410 183 L 2410 165 L 2410 147 L 2421.5 147 C 2432.3 147 2433 147.1 2433 149 Z M 436.7 157.4 L 439.5 159.8 L 439.8 194.6 C 440 220.1 439.8 230.2 438.9 232.3 C 437.1 236.7 432.8 238 420.5 238 C 409.1 238 403.9 236.6 402.1 233.2 C 401.4 231.8 401 219.2 401 195.7 L 401 160.2 L 404.1 157.6 C 407.1 155.1 407.6 155 420.5 155 C 433.2 155 434 155.1 436.7 157.4 Z M 1253.2 185.9 C 1264.8 190.4 1273.5 201.2 1277.5 216 C 1279.7 224.6 1280.8 260.7 1279.1 273.3 C 1275.1 303.2 1260.9 316.6 1233.5 316.4 C 1221.8 316.3 1214.8 314.1 1208.2 308.4 L 1204 304.8 L 1204 332.3 C 1204 347.5 1203.7 360.5 1203.4 361.4 C 1202.9 362.8 1200.4 363 1186.4 363 L 1170 363 L 1170 273.5 L 1170 184 L 1186.3 184.2 L 1202.5 184.5 L 1203 189.9 L 1203.5 195.2 L 1205.5 193 C 1208.1 190.1 1215 186.1 1220.3 184.4 C 1226.9 182.2 1246 183.1 1253.2 185.9 Z M 1368.9 184.5 C 1378.1 186.7 1386.6 191.5 1393.5 198.5 C 1404.5 209.6 1409.6 223.9 1410.7 246.7 L 1411.3 260 L 1370 260 L 1328.8 260 L 1329.4 264.7 C 1330.4 271.8 1334.6 279.7 1339.1 282.9 C 1344.6 286.9 1350.4 288.3 1360.7 287.8 C 1370.5 287.4 1375.7 285.5 1382.6 279.6 L 1386.5 276.3 L 1396.7 286 L 1406.9 295.8 L 1402 300.4 C 1390.9 310.7 1378.7 315.6 1361.6 316.6 C 1338 317.9 1318.7 310.2 1308.2 295.1 C 1294 274.9 1292.1 236.8 1304.2 212 C 1306.3 207.7 1309.8 203.1 1314.6 198.2 C 1322.1 190.7 1327.8 187.3 1338 184.6 C 1345.2 182.7 1360.8 182.6 1368.9 184.5 Z M 1512.2 185.1 C 1526.2 189.8 1535.5 200.1 1539.6 215.3 C 1540.7 219.4 1541 230.5 1541 267.7 L 1541 315 L 1524.5 315 L 1508 315 L 1508 273.2 C 1508 248.4 1507.6 230 1507 227.9 C 1504.4 218.6 1496.9 213 1487.3 213 C 1478.1 213 1471.4 217 1467.9 224.5 C 1466.2 228.2 1466 231.8 1466 271.7 L 1466 315 L 1449 315 L 1432 315 L 1432 249.5 L 1432 184 L 1448.5 184 L 1465 184 L 1465 189.6 L 1465 195.2 L 1468.8 192.2 C 1470.8 190.6 1473.6 188.7 1475 188 C 1484.9 182.7 1501.4 181.4 1512.2 185.1 Z M 2082 208.9 C 2086.1 211.8 2088 216.7 2088 224.7 C 2088 235.8 2085.1 241.1 2077.8 243.1 C 2072.3 244.5 2065.5 241.5 2063.5 236.6 C 2061.5 231.9 2061.5 218.1 2063.5 213.4 C 2066.2 206.8 2075.7 204.5 2082 208.9 Z M 2224.3 208.6 C 2227.3 210.2 2227.6 211.2 2225.7 212.8 C 2224.9 213.5 2223.9 213.4 2222.6 212.4 C 2219.9 210.5 2212.6 210.6 2210.6 212.6 C 2208.4 214.7 2208.5 219.7 2210.8 220.9 C 2211.7 221.4 2215 222.3 2218.1 222.9 C 2225.2 224.4 2228.5 227.5 2228.5 233 C 2228.5 242.2 2216.4 246.7 2206.8 241.1 C 2205.2 240.3 2204 239 2204 238.3 C 2204 236.1 2206.7 235.7 2209.2 237.4 C 2212.1 239.4 2218.9 239.5 2221.8 237.4 C 2224.3 235.7 2224.8 230.9 2222.7 229.1 C 2221.9 228.5 2218.9 227.5 2216 227 C 2206.4 225.2 2202.8 220.9 2205 213.8 C 2207 206.8 2216 204.4 2224.3 208.6 Z M 2254.8 208.8 C 2258.8 211.4 2260 215.2 2260 225 C 2260 231 2259.5 235.1 2258.6 236.9 C 2254.6 244.6 2243.3 245.7 2237.6 239 C 2232.9 233.3 2232.9 216.7 2237.7 211 C 2241.8 206.1 2249.2 205.1 2254.8 208.8 Z M 2355.6 210.2 C 2356.9 211.5 2358.2 213.7 2358.5 215.2 C 2359.1 217.6 2358.9 218 2357.1 218 C 2355.9 218 2354.5 216.9 2353.6 215.1 C 2351.9 212 2350.2 211 2346.4 211 C 2342.4 211 2340.2 212.8 2339 216.8 C 2336.9 224.7 2338.4 236.1 2342 238 C 2346.4 240.3 2351.4 239 2353.6 234.9 C 2354.4 233.2 2355.9 232 2357 232 C 2359.6 232 2359.5 233.9 2356.7 238.1 C 2352.5 244.4 2342.7 245.1 2337.1 239.5 C 2334.6 237 2334.5 236.5 2334.5 225 C 2334.5 213.4 2334.6 213 2337.1 210.4 C 2341.9 205.7 2351 205.5 2355.6 210.2 Z M 2117.6 210.4 C 2121.4 214.2 2122 218.1 2119.5 223 C 2117.2 227.5 2114.6 228.4 2101.8 229 C 2101.3 229 2101 232.1 2101 236 C 2101 242.8 2100.9 243 2098.5 243 L 2096 243 L 2096 225 L 2096 207 L 2105.1 207 C 2114.1 207 2114.2 207 2117.6 210.4 Z M 2150 209 C 2150 210.9 2149.3 211 2141 211 L 2132 211 L 2132 217 L 2132 223 L 2140 223 C 2144.4 223 2148 223.2 2148 223.4 C 2148 226.3 2146.4 227 2139.4 227 L 2132 227 L 2132 233 L 2132 239 L 2141 239 C 2149.3 239 2150 239.1 2150 241 C 2150 242.9 2149.3 243 2138.5 243 L 2127 243 L 2127 225 L 2127 207 L 2138.5 207 C 2149.3 207 2150 207.1 2150 209 Z M 2170.8 220.7 L 2180 234.5 L 2180 220.7 L 2180 207 L 2182.5 207 L 2185 207 L 2185 225 L 2185 243 L 2182.5 243 C 2180.3 243 2178.6 240.9 2171 229.2 L 2162 215.5 L 2162 229.2 L 2162 243 L 2159.5 243 L 2157 243 L 2157 225 L 2157 207 L 2159.4 207 C 2161.3 207 2163.4 209.6 2170.8 220.7 Z M 2273 221 C 2273 233.7 2273.2 235.2 2275 237 C 2277.6 239.6 2283 239.6 2286.1 237.1 C 2288.4 235.3 2288.5 234.5 2288.8 221.1 L 2289.2 207 L 2291.6 207 L 2294 207 L 2294 218.7 C 2294 225.2 2293.5 232.1 2293 234.1 C 2290.3 243.6 2277.8 246.7 2270.9 239.4 C 2268.6 237 2268.5 236.1 2268.2 221.9 L 2267.9 207 L 2270.4 207 L 2273 207 L 2273 221 Z M 2324.1 209.8 C 2326.8 212.2 2327.2 213.3 2327.2 217.1 C 2327.1 220.9 2326.6 221.9 2323.6 224.6 L 2320.1 227.6 L 2324.1 234.9 C 2326.2 238.9 2328 242.3 2328 242.6 C 2328 242.8 2326.9 243 2325.6 243 C 2323.5 243 2322.4 241.7 2318.9 235 C 2314.8 227.1 2314.7 227 2310.9 227 L 2307 227 L 2307 235 C 2307 242.9 2307 243 2304.5 243 L 2302 243 L 2302 225 L 2302 207 L 2311.5 207 C 2320.5 207 2321.1 207.1 2324.1 209.8 Z M 2390 209 C 2390 210.9 2389.3 211 2381 211 L 2372 211 L 2372 217 L 2372 223 L 2379.5 223 C 2386.3 223 2387 223.2 2387 225 C 2387 226.8 2386.3 227 2379.5 227 L 2372 227 L 2372 233 L 2372 239 L 2381 239 C 2389.3 239 2390 239.1 2390 241 C 2390 242.9 2389.3 243 2378.5 243 L 2367 243 L 2367 225 L 2367 207 L 2378.5 207 C 2389.3 207 2390 207.1 2390 209 Z M 114.4 259.4 C 118.9 261.3 119.7 262.8 117.2 265.2 C 115.6 266.8 114.9 267 113.2 266.1 C 108.7 263.7 103 265.1 103 268.5 C 103 271.4 103.5 271.8 110.1 273 C 116.2 274.2 118.7 276.1 119.9 280.4 C 121.7 287.3 117.3 293.4 109.7 294.5 C 105 295.2 98.7 293.9 95.6 291.5 C 93.7 290 93.7 290 95.9 287.6 C 98 285.3 98.2 285.3 102.3 286.8 C 107.1 288.5 111.7 287.9 112.7 285.3 C 113.8 282.5 111.5 280.7 105.7 279.5 C 99 278.2 96.3 276 95.4 271.3 C 93.6 261.8 104.2 255.1 114.4 259.4 Z M 149 261.6 C 149 265 148.9 265 144.5 265 L 140.1 265 L 139.8 279.7 L 139.5 294.5 L 136 294.5 L 132.5 294.5 L 132.2 279.7 L 131.9 265 L 127.5 265 C 123.2 265 123 264.9 123 262.2 C 123 260.6 123.3 259 123.7 258.6 C 124.1 258.3 129.9 258 136.7 258.1 L 149 258.2 L 149 261.6 Z M 175.5 260.4 C 181.2 264.1 181.9 272.3 177 277.5 L 174.9 279.8 L 178.5 286.9 C 182.3 294.6 182.1 295.5 176.3 294.8 C 174 294.6 172.9 293.4 170 287.7 C 167.3 282.4 166.1 281 164.3 281 C 162.1 281 162 281.4 162 288.1 L 162 295.1 L 158.3 294.8 L 154.5 294.5 L 154.2 277.5 C 154.1 268.2 154.2 259.9 154.5 259.2 C 155.3 257 171.8 258 175.5 260.4 Z M 202.7 259.2 C 203.6 260.4 214.8 291 215.3 293.5 C 215.4 294 213.8 294.6 211.8 294.6 C 208.4 294.8 208 294.5 207 291.4 C 205.9 288 205.8 288 199.9 288 C 194.1 288 194 288.1 192.6 291.5 C 191.4 294.4 190.6 295 188.1 295 C 186.5 295 184.9 294.6 184.6 294.2 C 184.3 293.7 186.8 286 190.1 276.9 C 193.4 267.9 196.2 259.9 196.5 259.2 C 196.7 258.6 198 258 199.3 258 C 200.7 258 202.2 258.6 202.7 259.2 Z M 240 261.5 C 240 265 240 265 235.5 265 L 231.1 265 L 230.8 279.7 L 230.5 294.5 L 227 294.5 L 223.5 294.5 L 223.2 279.7 L 222.9 265 L 218.5 265 C 214.2 265 214 264.9 214 262.2 C 214 260.6 214.3 259 214.7 258.7 C 215 258.3 220.9 258 227.7 258 L 240 258 L 240 261.5 Z M 270 261.5 L 270 265 L 262 265 L 254 265 L 254 269 L 254 273 L 261 273 L 268 273 L 268 276.5 L 268 280 L 261 280 L 254 280 L 254 283.5 L 254 287 L 262 287 L 270 287 L 270 291 L 270 295.1 L 258.3 294.8 L 246.5 294.5 L 246.2 277.5 C 246.1 268.2 246.2 260 246.4 259.3 C 246.8 258.3 250 258 258.5 258 L 270 258 L 270 261.5 Z M 294.5 259.6 C 298 261.2 300.2 263.8 301.4 267.7 C 302.1 269.8 301.8 270 298.5 270 C 295.7 270 294.3 269.4 292.8 267.5 C 290.6 264.7 286.9 264.2 284.6 266.6 C 282.3 268.9 282.3 283.6 284.7 286.2 C 286.7 288.4 288.9 288.5 291.8 286.4 C 295 284.2 294.7 281.2 291.3 280.8 C 289 280.6 288.4 280 288.2 277.2 L 287.9 274 L 294.9 274 L 302 274 L 302 279.1 C 302 288.2 298.1 293.3 290.2 294.6 C 284.8 295.4 278.4 292.1 276.4 287.5 C 274.4 282.5 274.6 269.4 276.8 265 C 279.8 258.8 287.8 256.4 294.5 259.6 Z M 316 276.5 L 316 295 L 312.5 295 L 309 295 L 309 276.5 L 309 258 L 312.5 258 L 316 258 L 316 276.5 Z M 341.4 259.4 C 345.1 261 349 265.4 349 268.1 C 349 271.1 343.3 270.6 340.4 267.5 C 338 264.9 335.5 264.4 333 266 C 331.3 267.1 330 280.7 331.3 284.3 C 332.9 288.7 337 289.2 340.4 285.5 C 343.5 282.2 349 282 349 285.1 C 349 288.2 343 293.7 338.6 294.5 C 333.5 295.5 328.1 293.3 325.2 289 C 323 285.8 322.9 284.6 323.2 275.4 C 323.5 264.2 324.5 262 330.5 259.4 C 334.4 257.7 337.3 257.7 341.4 259.4 Z M 382.8 260.7 C 387 263.8 388 266.7 388 276.5 C 388 286.3 387 289.2 382.8 292.3 C 380.6 294 378.4 294.4 371.3 294.4 L 362.5 294.5 L 362.2 277.5 C 362.1 268.2 362.2 259.9 362.5 259.2 C 363.4 256.9 379.2 258 382.8 260.7 Z M 415.7 275.5 C 419.2 284.8 422 293.1 422 293.8 C 422 294.7 420.8 295 418.3 294.8 C 415 294.5 414.4 294.1 413.6 291.2 C 412.7 288 412.7 288 406.5 288 C 400.4 288 400.3 288 399.4 291.2 C 398.6 294 398 294.5 394.7 294.7 C 392.7 294.9 391 294.6 391 294.1 C 391 293 402.7 260.2 403.6 258.8 C 403.9 258.3 405.4 258 406.8 258.2 C 409.3 258.5 409.9 259.7 415.7 275.5 Z M 445.4 258.6 C 446.4 259 447 260.4 447 262.1 C 447 264.9 446.8 265 442.5 265 L 438.1 265 L 437.8 279.7 L 437.5 294.5 L 434 294.5 L 430.5 294.5 L 430.2 279.7 L 429.9 265 L 425.5 265 C 421.2 265 421 264.9 421 262.2 C 421 260.6 421.3 259 421.7 258.7 C 422.5 257.8 443.3 257.8 445.4 258.6 Z M 464.9 259.9 C 465.9 261.8 477 291.7 477.3 293.5 C 477.4 294 475.8 294.6 473.8 294.7 C 470.4 294.9 470 294.6 469 291.5 C 467.9 288 467.8 288 461.9 288 C 456.1 288 456 288.1 454.6 291.5 C 453.4 294.4 452.6 295 450.1 295 C 448.5 295 446.9 294.6 446.6 294.1 C 446.1 293.4 449.3 284.1 458.5 259.2 C 459.2 257.3 463.8 257.8 464.9 259.9 Z M 508.5 260.4 C 512.5 263.1 514.5 268.5 513 273.2 C 511.5 278.4 507.2 281 500.3 281 L 495 281 L 495 288 L 495 295 L 491.5 295 L 488 295 L 488 276.4 L 488 257.8 L 496.9 258.2 C 503.1 258.5 506.5 259.1 508.5 260.4 Z M 536.9 259.3 C 544.5 262 547 271.3 541.7 276.8 L 538.9 279.8 L 542.5 286.9 C 546.3 294.6 546.1 295.5 540.3 294.8 C 537.9 294.5 537 293.5 534.2 287.7 C 531.5 282.1 530.6 281 528.5 281 C 526.1 281 526 281.2 526 288 L 526 295 L 522.5 295 L 519 295 L 519 276.5 L 519 258 L 526.3 258.1 C 530.2 258.1 535 258.6 536.9 259.3 Z M 571.5 260.4 C 576.9 263.9 578.9 271 577.5 281.6 C 576.9 286.3 576.2 288 573.6 290.6 C 567.5 296.7 557.9 295.9 553.3 289.1 C 551.3 286.2 551 284.4 551 276.6 C 551 266.1 552.8 261.9 558.3 259.4 C 562.1 257.7 568.1 258.2 571.5 260.4 Z M 600.8 272 C 601 286.7 600.5 288.8 595.7 292.4 C 591.8 295.3 583.9 295.3 581 292.4 L 579 290.4 L 581.5 288 C 583.4 286.2 584.3 285.9 585.2 286.8 C 586.8 288.4 589.2 288.3 591.4 286.7 C 593 285.5 593.2 283.8 593.1 272.7 C 593 265.7 593.2 259.5 593.6 258.9 C 593.9 258.3 595.6 258 597.3 258.2 L 600.5 258.5 L 600.8 272 Z M 632.8 261.7 L 633.1 265 L 625.1 265 L 617 265 L 617 269 L 617 273 L 624 273 L 631 273 L 631 276.5 L 631 280 L 624 280 L 617 280 L 617 283.5 L 617 286.9 L 624.8 287.2 L 632.5 287.5 L 632.5 291 L 632.5 294.5 L 621 294.5 L 609.5 294.5 L 609.2 277.5 C 609.1 268.2 609.2 260 609.4 259.4 C 609.7 258.5 613.2 258.2 621.2 258.3 L 632.5 258.5 L 632.8 261.7 Z M 657.3 259.4 C 661.2 261 663.6 263.6 664.5 267.2 C 665.2 269.9 665.1 270 661.1 270 C 658.1 270 657 269.6 657 268.5 C 657 266.1 652.5 264.5 649.6 265.8 C 644.9 267.9 644.6 284.6 649.2 287.1 C 651.9 288.5 655.7 287.4 656.5 285 C 657 283.4 658 283 661.1 283 C 665.7 283 666 284.2 662.7 289.1 C 658.3 295.6 648.9 296.6 643 291.2 C 639.4 288 637.9 281.4 638.6 272.5 C 639.2 265.6 641.1 262.3 646.1 259.8 C 650.2 257.6 653 257.5 657.3 259.4 Z M 694 261.5 C 694 265 694 265 689.5 265 L 685.1 265 L 684.8 279.7 L 684.5 294.5 L 681 294.5 L 677.5 294.5 L 677.2 279.7 L 676.9 265 L 672.5 265 C 668.2 265 668 264.9 668 262.2 C 668 260.6 668.3 259 668.7 258.7 C 669 258.3 674.9 258 681.7 258 L 694 258 L 694 261.5 Z M 2081.7 268.6 C 2085.6 271.1 2087.3 274.8 2087.8 282.1 C 2088 285.9 2087.9 290.6 2087.6 292.5 C 2086.7 297.4 2082.6 301.8 2077.8 303 C 2074.3 304 2073.2 303.8 2069.2 301.8 C 2063.5 299 2062.1 295.8 2062.1 284.7 C 2062 274.4 2063.6 270.5 2069.2 268 C 2073.8 265.9 2077.8 266.1 2081.7 268.6 Z M 2319.2 267 C 2323.2 268.2 2328 273.1 2328 276.1 C 2328 279 2324.2 278.6 2323 275.6 C 2321.2 270.8 2314.1 269.4 2310.2 273 C 2308.2 274.9 2308 276.1 2308 285 C 2308 296.6 2309.3 299 2315.5 299 C 2319 299 2324 295.5 2324 293 C 2324 292.5 2324.9 292 2326 292 C 2331.2 292 2325.5 301.2 2319.2 302.9 C 2315.3 304 2311.7 303.5 2308.2 301.2 C 2304.2 298.6 2303 294.8 2303 285 C 2303 272 2305.4 268.2 2315 266.1 C 2315.3 266.1 2317.2 266.5 2319.2 267 Z M 2421.6 267.9 C 2427.2 270.5 2429 274.6 2429 285 C 2429 295.6 2427.2 299.6 2421.3 302.2 C 2417.8 303.7 2416.3 303.9 2413.2 303.1 C 2406 301.1 2403 295.8 2403 284.9 C 2403 274.6 2406 269 2412.6 267 C 2416.7 265.8 2417.1 265.8 2421.6 267.9 Z M 2117.6 270.4 C 2121.6 274.4 2122.1 278.7 2119 283.7 C 2116.9 287.2 2112.3 289 2105.3 289 L 2101 289 L 2101 296 C 2101 302.8 2100.9 303 2098.5 303 L 2096 303 L 2096 285 L 2096 267 L 2105.1 267 C 2114.1 267 2114.2 267 2117.6 270.4 Z M 2150 269 C 2150 270.9 2149.3 271 2141 271 L 2132 271 L 2132 277 L 2132 283 L 2140.1 283 C 2147.2 283 2148.1 283.2 2147.8 284.7 C 2147.5 286.2 2146.2 286.5 2139.7 286.8 L 2132 287.1 L 2132 293 L 2132 299 L 2141 299 C 2149.3 299 2150 299.1 2150 301 C 2150 302.9 2149.3 303 2138.5 303 L 2127 303 L 2127 285 L 2127 267 L 2138.5 267 C 2149.3 267 2150 267.1 2150 269 Z M 2170.8 280.7 L 2180 294.5 L 2180 280.7 L 2180 267 L 2182.5 267 L 2185 267 L 2185 285 L 2185 303 L 2182.5 303 C 2180.3 303 2178.6 300.9 2171 289.2 L 2162 275.5 L 2162 289.2 L 2162 303 L 2159.5 303 L 2157 303 L 2157 285 L 2157 267 L 2159.4 267 C 2161.3 267 2163.4 269.6 2170.8 280.7 Z M 2229 269 C 2229 270.9 2228.3 271 2220 271 L 2211 271 L 2211 277 L 2211 283 L 2219.1 283 C 2226.2 283 2227.1 283.2 2226.8 284.7 C 2226.5 286.2 2225.2 286.5 2218.7 286.8 L 2211 287.1 L 2211 293 L 2211 299 L 2220 299 C 2228.3 299 2229 299.1 2229 301 C 2229 302.9 2228.3 303 2217.5 303 L 2206 303 L 2206 285 L 2206 267 L 2217.5 267 C 2228.3 267 2229 267.1 2229 269 Z M 2257.8 270.4 L 2261.5 273.8 L 2261.5 285 L 2261.5 296.2 L 2257.8 299.6 C 2254.1 302.9 2253.9 303 2245 303 L 2236 303 L 2236 285 L 2236 267 L 2245 267 C 2253.9 267 2254.1 267.1 2257.8 270.4 Z M 2274.2 281.1 C 2274.5 294.5 2274.6 295.3 2276.9 297.1 C 2279.4 299.2 2284 299.6 2287 298 C 2289.9 296.4 2291 291.4 2291 278.9 C 2291 267.5 2291.1 267 2293.1 267 C 2295.1 267 2295.1 267.4 2294.8 281.9 C 2294.5 296.1 2294.4 297 2292.1 299.4 C 2287.2 304.6 2277.9 304.7 2273.1 299.6 C 2270 296.3 2269.1 291.4 2269 278.2 C 2269 267 2269 267 2271.4 267 L 2273.8 267 L 2274.2 281.1 Z M 2354.1 283.4 C 2362 304.8 2361.6 303 2358.6 303 C 2356.5 303 2355.9 302.3 2354.9 299 L 2353.7 295 L 2346 295 L 2338.3 295 L 2337.1 299 C 2336.1 302.3 2335.5 303 2333.4 303 C 2331.3 303 2330.9 302.6 2331.5 301.2 C 2331.9 300.3 2334.9 292.2 2338.2 283.2 C 2346.1 261.9 2346.1 261.9 2354.1 283.4 Z M 2385 269 C 2385 270.8 2384.3 271 2379.5 271 L 2374 271 L 2374 287 C 2374 302.3 2373.9 303 2372 303 C 2370.1 303 2370 302.3 2370 287.1 L 2370 271.1 L 2364.8 270.8 C 2360.7 270.6 2359.4 270.1 2359.2 268.7 C 2358.9 267.2 2360 267 2371.9 267 C 2384.3 267 2385 267.1 2385 269 Z M 2395 285 L 2395 303 L 2392.5 303 L 2390 303 L 2390 285 L 2390 267 L 2392.5 267 L 2395 267 L 2395 285 Z M 2450.5 280.7 L 2459.5 294.3 L 2459.8 280.7 C 2460 267.8 2460.2 267 2462 267 C 2463.9 267 2464 267.8 2464 285 C 2464 302.3 2463.9 303 2462 303 C 2460.6 303 2457.6 299.4 2451.3 289.9 L 2442.5 276.7 L 2442.2 289.9 L 2441.9 303 L 2439.5 303 L 2437 303 L 2437 285 L 2437 267 L 2439.3 267 C 2441 267 2443.4 269.9 2450.5 280.7 Z M 252.8 349.5 C 256.4 352.5 257.6 356 255.1 356 C 254.1 356 252.8 354.9 252.2 353.5 C 250.8 350.4 246.5 349.2 243.1 351.1 C 241.2 352.2 240.3 353.8 239.6 357.3 C 238.3 364.1 239.8 371.1 243.1 372.9 C 246.5 374.8 250.8 373.6 252.2 370.5 C 253.6 367.4 257.1 367 256.3 370 C 255.4 373.6 250.2 377 245.8 377 C 242.8 377 241.2 376.3 238.9 374.1 C 236.1 371.3 236 370.8 236 362 C 236 353.2 236.1 352.7 238.9 349.9 C 242.8 346.1 248.5 345.9 252.8 349.5 Z M 280.1 349.9 C 282.9 352.7 283 353.2 283 362 C 283 370.8 282.9 371.3 280.1 374.1 C 277.7 376.5 276.3 377 272.5 377 C 268.7 377 267.3 376.5 264.9 374.1 C 262.1 371.3 262 370.8 262 362 C 262 353.2 262.1 352.7 264.9 349.9 C 267.3 347.5 268.7 347 272.5 347 C 276.3 347 277.7 347.5 280.1 349.9 Z M 301.2 358.9 L 309 370.3 L 309 358.7 C 309 349 309.3 347 310.5 347 C 311.8 347 312 349.3 312 362.1 C 312 375.6 311.8 377.1 310.3 376.8 C 309.4 376.6 305.2 371.4 300.8 365.1 L 293 353.7 L 293 365.3 C 293 375 292.7 377 291.5 377 C 290.2 377 290 374.7 290 361.9 C 290 343.2 290.4 343.1 301.2 358.9 Z M 324.7 358.7 L 328.4 370.5 L 332 359 C 335 349.4 335.9 347.4 337.7 347.2 C 339.8 346.9 339.7 347.6 334.8 362 C 328.1 382.2 328.2 382.3 320.6 357.7 C 317.4 347.8 317.3 347 319.1 347 C 320.6 347 321.7 349.2 324.7 358.7 Z M 361.8 348.2 C 361.5 349.1 358.7 349.6 353.7 349.8 L 346 350.1 L 346 355.5 L 346 361 L 352.5 361 C 357.6 361 359 361.3 359 362.5 C 359 363.7 357.6 364 352.5 364 L 346 364 L 346 369 L 346 373.9 L 353.7 374.2 C 358.7 374.4 361.5 374.9 361.8 375.7 C 362.1 376.7 359.8 377 352.6 377 L 343 377 L 343 362 L 343 347 L 352.6 347 C 359.8 347 362.1 347.3 361.8 348.2 Z M 379.2 358.9 L 387 370.3 L 387 358.7 C 387 349 387.3 347 388.5 347 C 389.8 347 390 349.3 390 362.1 C 390 375.6 389.8 377.1 388.3 376.8 C 387.4 376.6 383.2 371.4 378.8 365.1 L 371 353.7 L 371 365.3 C 371 375 370.7 377 369.5 377 C 368.2 377 368 374.7 368 361.9 C 368 343.2 368.4 343.1 379.2 358.9 Z M 402 362 C 402 374.7 401.8 377 400.5 377 C 399.2 377 399 374.7 399 362 C 399 349.3 399.2 347 400.5 347 C 401.8 347 402 349.3 402 362 Z M 422.2 358.9 L 430 370.3 L 430 358.7 C 430 349 430.3 347 431.5 347 C 432.8 347 433 349.3 433 362.1 C 433 375.6 432.8 377.1 431.3 376.8 C 430.4 376.6 426.2 371.4 421.8 365.1 L 414 353.7 L 414 365.3 C 414 375 413.7 377 412.5 377 C 411.2 377 411 374.7 411 361.9 C 411 343.2 411.4 343.1 422.2 358.9 Z M 458.1 349.9 C 461 352.9 462 356 459.9 356 C 459.3 356 457.5 354.6 456 353 C 452.7 349.5 449.3 349.1 445.9 351.9 C 443.7 353.6 443.5 354.6 443.5 362 C 443.5 369.4 443.7 370.4 445.9 372.1 C 450.5 375.8 456.4 373.4 457.6 367.2 C 458.2 364 458.2 364 454.1 364 C 451.1 364 450 363.6 450 362.5 C 450 361.3 451.3 361 455.5 361 L 461 361 L 461 366.1 C 461 370.4 460.5 371.6 458.1 374.1 C 455.7 376.5 454.3 377 450.5 377 C 446.7 377 445.3 376.5 442.9 374.1 C 440.1 371.3 440 370.8 440 362 C 440 353.2 440.1 352.7 442.9 349.9 C 445.3 347.5 446.7 347 450.5 347 C 454.3 347 455.7 347.5 458.1 349.9 Z M 490.7 349.2 C 494.7 352.9 493.8 357.2 487.5 365.6 C 484.5 369.6 482 373.2 482 373.5 C 482 373.8 484.5 374 487.5 374 C 491.7 374 493 374.3 493 375.5 C 493 376.7 491.4 377 485 377 C 478.4 377 477 376.7 477 375.5 C 477 374.6 479.9 370.1 483.5 365.4 C 487.1 360.7 490 356.2 490 355.4 C 490 349.9 483 347.7 480.8 352.5 C 480.2 353.9 479.1 355 478.3 355 C 476.3 355 476.7 351.9 479.2 349.3 C 482 346.3 487.5 346.2 490.7 349.2 Z M 512.7 349.2 C 514.8 351.2 515 352.2 515 361.9 C 515 371.3 514.8 372.6 512.8 374.7 C 510 377.7 504.5 377.8 501.3 374.8 C 499.2 372.8 499 371.8 499 362.1 C 499 352.7 499.2 351.4 501.2 349.3 C 504 346.3 509.5 346.2 512.7 349.2 Z M 532 362 C 532 374.7 531.8 377 530.5 377 C 529.2 377 529 374.9 529 363.8 L 529 350.7 L 526.7 352.8 C 524.1 355.3 523 355.6 523 353.8 C 523 351.9 528.2 347 530.2 347 C 531.9 347 532 348.2 532 362 Z M 560 347.7 C 560 348.2 557.7 354.9 554.8 362.7 C 550.7 373.8 549.2 377 547.8 377 C 545.6 377 545.5 377.5 548.5 369.6 C 549.9 366 552.1 360.1 553.5 356.5 L 555.9 350 L 551 350 C 546.3 350 546 350.2 546 352.5 C 546 354.1 545.4 355 544.5 355 C 543.4 355 543 353.9 543 351 L 543 347 L 551.5 347 C 556.2 347 560 347.3 560 347.7 Z" />
  <path
     style="fill:#b5a56e;fill-opacity:1;stroke:#b5a56e;stroke-width:1.20192313;stroke-miterlimit:4;stroke-dasharray:none;stroke-opacity:1"
     d="m 1398.5957,343.75375 c -10.4449,-5.25209 -19.7839,-10.26699 -20.7532,-11.14423 -1.7005,-1.53896 -1.6324,-1.97337 1.941,-12.36523 5.4575,-15.87165 6.9915,-26.19564 6.315,-42.50102 -1.6253,-39.17418 -19.2643,-71.83054 -50.6986,-93.86228 -4.8164,-3.37575 -9.4753,-6.6469 -10.3531,-7.26923 -1.4423,-1.02257 -1.1491,-2.04087 3.0459,-10.57692 8.5643,-17.42712 16.2948,-31.08004 17.5981,-31.08004 1.7791,0 13.269,6.97618 21.1981,12.87053 9.9227,7.37638 25.7021,23.09861 32.9217,32.80255 8.7837,11.80622 11.6006,16.4557 17.7675,29.32692 16.9923,35.4649 20.9386,73.31784 11.5526,110.81267 -2.3625,9.43786 -7.7912,25.37267 -10.229,30.02545 l -1.3152,2.51007 -18.9908,-9.54924 z"
     id="path4292"
     inkscape:connector-curvature="0"
     transform="scale(0.8,0.8)" />
</svg>
